<svg xmlns="http://www.w3.org/2000/svg" viewBox="0 0 272.53 40.48"><defs><style>.a{fill:#231f20;}.b{fill:none;stroke:#231f20;stroke-width:1.13px;}</style></defs><title>Untitled-1</title><path class="a" d="M30.12,11.49a1.77,1.77,0,0,1,1,.13c.22.12.53.38.85.61a1,1,0,0,1,.35,0,4.19,4.19,0,0,0,.73.35s.07,0,.11-.13l.25,0a4.42,4.42,0,0,1,.63.07,4.67,4.67,0,0,0,.64.08l.33,0-.1-.16a.75.75,0,0,0,.29-.08.65.65,0,0,1-.07-.29,1.37,1.37,0,0,1,1,.29,4.82,4.82,0,0,1,1.48,1.53h.53c.09.09.17.19.26.29a1.28,1.28,0,0,1,.26.33c.09.21.08.32-.06.33l-.39,0a.8.8,0,0,1,0,.22A11.85,11.85,0,0,1,39,16.41l-.1.08a1.73,1.73,0,0,0,.44,1.06s-.07.07-.11.16a2.31,2.31,0,0,0,.4.26,1.14,1.14,0,0,0,.49.12h.26c.12,0,.33.28.56.81a.79.79,0,0,1,0,.25h-.33l.49.52-.34-.06a.81.81,0,0,1,0,.38,1.44,1.44,0,0,0-.21.37s0,.22.12.57a.36.36,0,0,1-.22.4,1,1,0,0,1-.32.05,1.56,1.56,0,0,1-1-.35,4.48,4.48,0,0,0-.53-.75,1,1,0,0,1-.36-.16,1.18,1.18,0,0,1-.23-.48,1.55,1.55,0,0,0-.21-.49l-.41-.25a5.11,5.11,0,0,0-.3-.76l-.34-.35-.3-.09a1,1,0,0,1-.25-.44,2,2,0,0,0-.16-.41,2.78,2.78,0,0,1-.53-.38c-.18-.19-.22-.39-.14-.47l-.17-.22a12.6,12.6,0,0,1-1.21-.69,3.66,3.66,0,0,0-.43-.38l-.8-.09a.66.66,0,0,1-.28.08.59.59,0,0,0-.25-.16l.19.3s0,0-.07.08a6.06,6.06,0,0,1-.72-.08,1.67,1.67,0,0,1-.38-.14,1.3,1.3,0,0,0-.47-.14.25.25,0,0,0-.17.06s0,.17,0,.39a1.56,1.56,0,0,0,.21.51l.41.33-.58.14c0,.07,0,.1,0,.17a1.89,1.89,0,0,0-.83.08,2.82,2.82,0,0,0,.13.65,3.39,3.39,0,0,0,.26.82,1.73,1.73,0,0,1,.35.44l-.11.09c0,.15,0,.3,0,.47a1.09,1.09,0,0,1,.12.3q-.11.13-.21.3a2.79,2.79,0,0,0,.39,1.3,1,1,0,0,0-.21.21c0,.07,0,.1,0,.16a4.1,4.1,0,0,1,.39.37,6.36,6.36,0,0,0-.28,2.07c0,.17.08.43.11.7a6.55,6.55,0,0,0-.17.7,2.5,2.5,0,0,0,0,.71.65.65,0,0,1,.16.13,2.5,2.5,0,0,0-.16.78,7.59,7.59,0,0,1,.09.86c-.12.23-.28.56-.49,1,0,0,.07,0,.09.08s.06.07.13,0l.33-.2a1.34,1.34,0,0,1,.51.11,1.36,1.36,0,0,1,.43.19.78.78,0,0,0,0,.43c0,.08.28.15.61.2a1.32,1.32,0,0,1,.62.18c0,.07.08.28.15.44l.45-.07a2,2,0,0,0,.62-.25l.54-.33a5,5,0,0,0,1.17-.34l.09-.2.62-.36a2.46,2.46,0,0,1,.16-.28,3.54,3.54,0,0,0,.48-.35,1.72,1.72,0,0,0,.18-.54c0-.29.07-.47.09-.54a2.47,2.47,0,0,0,.59-.27s0-.13.06-.23.13-.22.34-.55a3.61,3.61,0,0,1,.34-.5,4.37,4.37,0,0,0,.53-.15,2.6,2.6,0,0,1,.23-.28.48.48,0,0,1,.24-.06,1,1,0,0,1,.89.42,2.2,2.2,0,0,0,.06.41,1.32,1.32,0,0,0,.34.6,3.08,3.08,0,0,1-.22.51,3,3,0,0,1-.32.34c0,.07.09.17.17.31s-.11.18-.14.18,0,0,0,0c0,.15-.06.23-.08.23a.59.59,0,0,0-.32.05,5.79,5.79,0,0,1,.8.31.31.31,0,0,1,0,.19c-.05.13-.25.25-.6.35-.61.18-1,.28-1,.3A13.51,13.51,0,0,1,38.34,30a1.43,1.43,0,0,0-.28-.08l-.39.35a1.07,1.07,0,0,0-.31.08,5.88,5.88,0,0,1-1,1,2.94,2.94,0,0,1-1.27.42,2,2,0,0,0-.5,0,5.77,5.77,0,0,1-.83.5,1.51,1.51,0,0,1-.64,0,3.63,3.63,0,0,0-.52,0,3.67,3.67,0,0,0-.58.15,1.83,1.83,0,0,1-.67.11,5.46,5.46,0,0,0-.58-.45,2.1,2.1,0,0,1-.5-.17,1.86,1.86,0,0,0-.17-.36,1.85,1.85,0,0,1-.62,0l0-.05A1.35,1.35,0,0,1,29,31a4.57,4.57,0,0,1-.19-.64l.1-.15a1.45,1.45,0,0,1-.41-.65,2.68,2.68,0,0,0,.18-.58,1,1,0,0,1-.15-.36l.07-.12a1.34,1.34,0,0,1-.28-.21,1.21,1.21,0,0,0,.09-.5,2.52,2.52,0,0,1-.11-.51,4.45,4.45,0,0,1,.43-1.4c0-.12,0-.14-.06-.05.06-.2.09-.3.14-.5a1.28,1.28,0,0,1-.29-.36l.09-.42a3.07,3.07,0,0,1-.29-.7,3.29,3.29,0,0,0,.19-.75l-.1-.43a3.56,3.56,0,0,1,0-.78,2,2,0,0,0-.07-.8,1.38,1.38,0,0,1-.15-.37.69.69,0,0,0,.12-.29c0-.13-.06-.43-.11-.81l.11-.08a1.64,1.64,0,0,1-.2-.55,3.56,3.56,0,0,0,0-.47,4.64,4.64,0,0,1-.52-1.07c0-.09,0-.26,0-.45A3.79,3.79,0,0,1,27,15.87c0-.17.09-.56.1-.95a3.62,3.62,0,0,1-.36-.51.2.2,0,0,1,.09-.29A1,1,0,0,0,27,14a2.41,2.41,0,0,0-.12-.48c-.08-.24-.05-.37.06-.38l.27,0-.05-.16a.67.67,0,0,0,.42,0s0-.22-.16-.53-.07-.42.09-.47a1.92,1.92,0,0,0,.79,0c.05,0,.11-.14.19-.21a2.66,2.66,0,0,0,1,.07A3.66,3.66,0,0,1,30.12,11.49Zm.39,5.35a1,1,0,0,1,.23.12.77.77,0,0,1,.16.16l-.11,0A1.24,1.24,0,0,1,30.51,16.84Zm10.86,9c.18,0,.25.16.2.36a.09.09,0,0,1-.11.08.25.25,0,0,1-.19-.14.34.34,0,0,1,0-.22C41.28,25.9,41.31,25.86,41.37,25.88Z" transform="translate(-7.38 -7.84)"/><path class="a" d="M46.87,11.86a7.26,7.26,0,0,1,.88,0,.46.46,0,0,1,.19.08,15.09,15.09,0,0,1,1.69.74c.06.12.13.3.23.47a2,2,0,0,0,.92.55,1.33,1.33,0,0,1,.07.3,4.68,4.68,0,0,1-.44.42,5.6,5.6,0,0,1,.68.65,2.48,2.48,0,0,1,.3.79,6.89,6.89,0,0,1,.73.4,1.76,1.76,0,0,0,.09.2l-.23.07c.22.35.54.83.92,1.42l.56.39a5.34,5.34,0,0,0,.4.81l.55.29a1.69,1.69,0,0,1,0,.38A2.18,2.18,0,0,1,54,20l.05.23a1.62,1.62,0,0,0,.48.44h.07c0,.14,0,.37,0,.7l.16.13a4,4,0,0,0,0,.55c.12.19.26.44.42.76a1.89,1.89,0,0,1,.95.16v.16a4.59,4.59,0,0,0-.57.37.91.91,0,0,1,.32.47,5,5,0,0,1,0,.77l.12.24a2.32,2.32,0,0,1-.22,1.24.56.56,0,0,1,.17.24l-.05.29a1.11,1.11,0,0,0-.23.15,2.29,2.29,0,0,0,.07,1.41.66.66,0,0,0,.33.3c.19.1.29.19.31.26a.84.84,0,0,1,0,.35,1.39,1.39,0,0,0,0,.42l.12.08c0,.08,0,.12,0,.21A.6.6,0,0,0,57,30a.91.91,0,0,1,.44.07c0,.07.06.29.13.48a1.32,1.32,0,0,1,.34.09.39.39,0,0,0,0,.21l.34.08a.75.75,0,0,1,0,.16h.12A8.67,8.67,0,0,1,58,32.21l-.38.32a1.09,1.09,0,0,1-.58.31,3.38,3.38,0,0,0-.55,0,5.72,5.72,0,0,1-.89.36A11.63,11.63,0,0,1,54,33a1.63,1.63,0,0,0-.62.07,1.5,1.5,0,0,1-.62.07c-.14,0-.36-.16-.62-.25a2,2,0,0,1-.88,0c-.07,0-.2-.14-.35-.22a2.08,2.08,0,0,0-.36.1l-.31.11a1.78,1.78,0,0,0-.17-.46l-.26-.08a1.73,1.73,0,0,0,.36-.84,1.47,1.47,0,0,0-.56,0,4.23,4.23,0,0,0-.47.24.6.6,0,0,1-.32,0l-.25-.12-.4.07a3.56,3.56,0,0,1-.08.45c0,.09-.22.19-.54.31l-.49.23a10.31,10.31,0,0,0-1.06.06,7.76,7.76,0,0,0-.87.12l-.87,0-.23,0-.26,0a1.4,1.4,0,0,0-.46-.22,3.3,3.3,0,0,1-1,.11c-.16,0-.41-.15-.67-.22a4.86,4.86,0,0,1-.65,0,2.16,2.16,0,0,0-.2-.31c-.12-.18-.19-.29-.18-.33a1.6,1.6,0,0,1,.18-.7,3.19,3.19,0,0,1,.47-.88,1.46,1.46,0,0,1,.91-.37s.35,0,.91,0a2.14,2.14,0,0,0,.82-.23c.3-.31.45-.46.73-.77a1.8,1.8,0,0,1,0-.37,1,1,0,0,1,.36-.28,1.19,1.19,0,0,0,.38-.28.68.68,0,0,0,.12-.37.72.72,0,0,1,.07-.36,5.43,5.43,0,0,1,.71-.67h.07a6.93,6.93,0,0,0,.18-.94.13.13,0,0,0-.07-.05.08.08,0,0,1,0-.08.68.68,0,0,1,.28-.3A1.4,1.4,0,0,0,47,25a1,1,0,0,1,0-.23.35.35,0,0,0,.22-.08.47.47,0,0,0-.09-.5,2,2,0,0,1-.26-.18.58.58,0,0,0,0-.23,1.6,1.6,0,0,0,.36-.24A1.58,1.58,0,0,0,47.5,23a1.31,1.31,0,0,1,.18-.49l.26-.27a1.85,1.85,0,0,0,.27-.92A5.39,5.39,0,0,1,48,20.5c0-.12,0-.17,0-.29a.84.84,0,0,0,0-.39s-.06,0-.12-.1a.38.38,0,0,1-.11-.22s.1-.09.14-.15a1.39,1.39,0,0,0,0-.37c-.11-.19-.44-.71-.4-.92a3.2,3.2,0,0,0,.19-.38,1.66,1.66,0,0,1-.2-.32,1.6,1.6,0,0,0,.34-.51,2.64,2.64,0,0,0-.38-.86,3.39,3.39,0,0,1-.43-.81,2.21,2.21,0,0,1,0-.38s0,0,0-.07a.68.68,0,0,0-.06-.16,1.53,1.53,0,0,0-.44-.34,1.25,1.25,0,0,1-.42-.34c-.08-.15,0-.34.13-.56a.27.27,0,0,0,.29-.14,4,4,0,0,1-.25-.6Zm2.74,15.65c-.24,0-.46.28-.67.75h-.62c0,.12-.08.29-.15.52l-.27.15a.62.62,0,0,1,0,.24c.17,0,.18.08,0,.08.64-.05,1,.11,1.16.48,0,.09,0,.2.12.35.11,0,.45,0,.52,0s0,.19.1.32a1.93,1.93,0,0,1,.33.08l.36-.23a1.22,1.22,0,0,1,.18-.32h.14a4.67,4.67,0,0,0,.64-.45,7.32,7.32,0,0,0,.65-.54l0-.38c0-.13-.1-.23-.21-.22a2.2,2.2,0,0,1-.35,0v-.55a2.32,2.32,0,0,0-.87-.23A4.11,4.11,0,0,0,49.61,27.51Zm1.47-8.06a1.57,1.57,0,0,0-.46.54.71.71,0,0,1,.1.23,1.52,1.52,0,0,1,.31.16,1.18,1.18,0,0,0-.47.36.38.38,0,0,0,0,.26.56.56,0,0,1,.09.21c0,.07-.07.17-.24.29a3.79,3.79,0,0,1-.09.79c-.33-.05-.46-.08-.4-.08a1.82,1.82,0,0,1,0,.29h.47a.36.36,0,0,1,.13-.21c.34.55.45.93.37,1.16a1.61,1.61,0,0,0-.19.13.31.31,0,0,0,0,.23c0,.06,0,.08.13.08l.33-.23h.64a7.38,7.38,0,0,0,.31-.92l-.44-.45a1.46,1.46,0,0,1-.4-.16.63.63,0,0,0-.08-.23,1.67,1.67,0,0,0,.56.13c.23,0,.35-.13.32-.39a2.29,2.29,0,0,0-.19-.66,6,6,0,0,1-.23-.67c-.2-.13-.3-.18-.29-.16s0-.23-.09-.62Z" transform="translate(-7.38 -7.84)"/><path class="a" d="M60,12.45a2.49,2.49,0,0,1,1.3.14,2.19,2.19,0,0,0,.22.24,1.18,1.18,0,0,1,.37,0s0,0,0,0a.19.19,0,0,1,.11,0,2.13,2.13,0,0,1,.54.05,3.46,3.46,0,0,0,.58.07l.35-.06c.54.08,2,.16,4.32.25-.06,0,0-.05.14-.08a3.35,3.35,0,0,1,1.58.14,1.55,1.55,0,0,0,.29.27,1.41,1.41,0,0,0,.66.21,2,2,0,0,1,.66.17,5,5,0,0,0,.73.61.44.44,0,0,0,.33,0,.78.78,0,0,1,.22-.09l1,.81c0,.05,0,.08,0,.14a.7.7,0,0,1,.29,0l.09.07c0,.08,0,.21.08.33s.31.32.73.55a.5.5,0,0,1-.07.27,3.14,3.14,0,0,1-.57.25,1.59,1.59,0,0,0,.1.33s.22.13.59.34a.64.64,0,0,0-.12.4.24.24,0,0,0,.13.13,1.29,1.29,0,0,0-.3.26,3.09,3.09,0,0,1,0,.53l-.1.13a5.67,5.67,0,0,0,.24,1.07l-.43.2c-.12.13-.13.43-.07.93,0,.13,0,.3,0,.52L74,21.6A2.28,2.28,0,0,0,74,22c0,.13,0,.19-.13.19a.86.86,0,0,0-.33.06c-.06,0-.13.14-.19.34s-.16.3-.25.31l-.39.06c-.11.15-.23.31-.35.49a4,4,0,0,0-.63.24,1.32,1.32,0,0,0-.7,0c0,.09-.12.19-.21.32a.42.42,0,0,1-.3-.07.57.57,0,0,0-.26-.09c-.12.09-.29.19-.49.32a2,2,0,0,1-.63,0,4.29,4.29,0,0,0-.67-.05.78.78,0,0,0-.42.08s-.12.19-.22.32a1.18,1.18,0,0,1,0,1.09,2,2,0,0,0-.22.16.69.69,0,0,1,0,.24,1.05,1.05,0,0,0-.3.24s0,0,.06.08a7.08,7.08,0,0,0-.23,1,1.62,1.62,0,0,0,.2.08.2.2,0,0,1,0,.16.62.62,0,0,0,0,.16,2.15,2.15,0,0,1-.4.4,2.1,2.1,0,0,0-.36,0s0,.09-.11.32c0,0,0,.06,0,.16l.65-.07a5.36,5.36,0,0,1,.22,1c-.06.09-.21.45-.16.56s.12.09.19.16l0,.16a4.09,4.09,0,0,0,.67.3h.51l.12.16h.15l0-.16.32-.16a.58.58,0,0,1,.4.09c0,.09.11.19.29.29a.9.9,0,0,1,.31,0l0,.16A1.3,1.3,0,0,1,70,32a1.12,1.12,0,0,0-.25.16.45.45,0,0,1-.09.2.24.24,0,0,1-.17.09l-.16,0a1.73,1.73,0,0,1-.36.32,8.21,8.21,0,0,0-.87,0l-.18.16a3.11,3.11,0,0,1-1.44.07,1.69,1.69,0,0,0-.32-.25,2.62,2.62,0,0,0-.85-.16,1.16,1.16,0,0,0-.45.11,1.36,1.36,0,0,1-.35.12l-.93-.09c0,.07-.07.1-.11.16a14.92,14.92,0,0,0-1.6,0,7.41,7.41,0,0,1-1.66-.09l-.25-.16a1.44,1.44,0,0,1-.69-.16c0-.08,0-.18,0-.32a2.49,2.49,0,0,1,.07-.48.79.79,0,0,1,.41-.37l.57-.26a1.44,1.44,0,0,1,.45-.32,2.94,2.94,0,0,0,1.11-.07c.21-.07.54-.29.89-.45h.94c.13-.21.28-.48.45-.8s.06-.38.11-.64l-.13-.08a.68.68,0,0,1,.1-.32l.13-.24c0-.26,0-.64.08-1.12a.34.34,0,0,1,.05-.12.46.46,0,0,0,0-.2c0-.09-.07-.14-.11-.24a5.06,5.06,0,0,1,.11-1.28l.16-.21a1.21,1.21,0,0,1,0-.64,3,3,0,0,0,.23-.56,4,4,0,0,0,0-.63c0-.32-.06-.52-.06-.57a2.71,2.71,0,0,0,0-1.24c0-.08-.19-.23-.26-.37a2.84,2.84,0,0,1-.22-.89c0-.13,0-.2.07-.34A7.26,7.26,0,0,1,64,18.48c0-.21-.05-.38-.07-.43a4,4,0,0,1-.37-.28.25.25,0,0,1,0-.26.73.73,0,0,0,.07-.16,3,3,0,0,0-.3-.54c-.17-.26-.27-.41-.29-.46a1.24,1.24,0,0,1-.14-.57l.11-.06c0-.05-.14-.24-.36-.59a.53.53,0,0,1-.34.06,2.47,2.47,0,0,0-.32-.27c-.18,0-.45,0-.83-.1L61,14.67l-.67-.25,0-.07a1.51,1.51,0,0,0-.39-.07,3.9,3.9,0,0,0-1.28.22l-.42-.16c0-.15,0-.37-.06-.67l.12-.07a1.71,1.71,0,0,0-.22-.39,2.39,2.39,0,0,1,.65-.2,3.51,3.51,0,0,1,.73.19C59.53,12.74,59.72,12.49,60,12.45Zm7.33,2.23c-.06.16-.16.39-.28.68a.42.42,0,0,1-.22,0,.9.9,0,0,1-.22-.22h-.36l0,.14-.24.13a5.4,5.4,0,0,1,.53.72.64.64,0,0,1,.24.07h-.21a.6.6,0,0,1-.07.2,1.24,1.24,0,0,1-.4.06,6.6,6.6,0,0,1,1.16.31,1.27,1.27,0,0,0,.17.27.74.74,0,0,1,0,.21s-.19.09-.28.2a4.13,4.13,0,0,1,.2.62l-.1.13c0,.05,0,.1,0,.14.21.14.33.25.35.33a.1.1,0,0,1,0,.09,5.54,5.54,0,0,1-.23.7s0,.09.13.28c0,0,0,0,.1.12s0,.13,0,.21-.09.11-.29.29a3.94,3.94,0,0,1,.7.44.82.82,0,0,0,0,.3.92.92,0,0,0,.39.45.83.83,0,0,0,.38.1,1.62,1.62,0,0,0,.61-.17,2.09,2.09,0,0,1,.5-.16l.36.15a.55.55,0,0,0,.37-.09l.3-.13a2,2,0,0,0,.77,0c0-.06,0-.09,0-.15.24-.38.35-.57.56-.93a3.32,3.32,0,0,0,.75-.07c.1,0,.13-.19.08-.43a1.26,1.26,0,0,1,0-.44s.22-.1.37-.2a2.29,2.29,0,0,0-.14-.27.06.06,0,0,0,.06,0,.2.2,0,0,1,.05-.09l-.15-.27L72.77,18l-.09-.07a1.67,1.67,0,0,0-.25-.6c-.08-.09-.32-.23-.55-.41a2.33,2.33,0,0,0-.27-.41,2.54,2.54,0,0,1-.57-.22.6.6,0,0,0-.14-.2,4,4,0,0,1-.54-.15c-.13-.08-.36-.29-.66-.5a1.52,1.52,0,0,1-.36,0l-.12-.14a2.37,2.37,0,0,1-.43,0l-.19-.12a1.11,1.11,0,0,1-.36,0s-.13-.14-.33-.37Z" transform="translate(-7.38 -7.84)"/><path class="a" d="M82.88,13.06a2.29,2.29,0,0,1,.64.07,2.81,2.81,0,0,0,.59.09l.37-.16c-.06,0,.17.08.58.07a7.3,7.3,0,0,1,1.94.06c.43.1,1,.72,1.64,1.56a1.33,1.33,0,0,0,.3.07.75.75,0,0,1,.29-.15.68.68,0,0,0,0,.28c-.2,0-.27,0-.22-.06h-.44c0,.3,0,.45,0,.74h.15l-.07.11a.19.19,0,0,1,.07.23c0,.07-.07.16-.09.24a.43.43,0,0,0,.06.37,3.24,3.24,0,0,0,.36.2c0,.07,0,.11,0,.19a.47.47,0,0,0-.21.07.76.76,0,0,0,.07.3l.08.26a7.78,7.78,0,0,0,.24,1.63,1.59,1.59,0,0,1,.24.2,1,1,0,0,1,.09.36,1.88,1.88,0,0,1-.08.76c0,.21-.14.45-.17.65a1.94,1.94,0,0,1-.15.73c-.1.14-.45.17-.73.09a.67.67,0,0,1-.39-.44,4.63,4.63,0,0,0-.29-.66c-.07-.1-.22-.27-.37-.47a1.1,1.1,0,0,0-.14-.6,3,3,0,0,0-.43-.27.81.81,0,0,1-.11-.26c0-.18.12-.37.44-.58,0,0,0-.12,0-.19l-.3-.11c0-.24,0-.37,0-.39l-.45-.29a2.71,2.71,0,0,0,0-.69l-.48-.32a2,2,0,0,1,0-.26h.21v-.11l-.41-.33A3.46,3.46,0,0,0,84.11,16c-.26,0-.38.11-.35.18a.59.59,0,0,1,0,.33s-.17,0-.28.06a.29.29,0,0,1,0,.2,2.91,2.91,0,0,1-.41.32,1.32,1.32,0,0,0,.08.36l.15.07a3.1,3.1,0,0,1,.42.74s0,.13-.13.26a.42.42,0,0,0-.06.43,2.48,2.48,0,0,0,.22.21c.14.12.24.3.21.36s-.11.09-.16.13a2,2,0,0,1,.07.46s0,.15-.1.34a.92.92,0,0,0,0,.4,3.05,3.05,0,0,1,.44.64,2.19,2.19,0,0,1-.09.7c.08,0,.12.19.14.45a1.58,1.58,0,0,1,0,.7c0,.06-.12.15-.18.24A2.19,2.19,0,0,0,84,24.84a.91.91,0,0,0,.14.31,1,1,0,0,1,.11.55h0v.38l-.14.08a.77.77,0,0,0,.07.51.47.47,0,0,1,.12.19.6.6,0,0,1,0,.32c.06,0,.08.36,0,.94s0,1.09,0,1.16,0,.26,0,.4l.14.08a1,1,0,0,0-.07.24.47.47,0,0,0,.36.22,1.84,1.84,0,0,0,.63-.08,1.13,1.13,0,0,1,.14-.22,6.6,6.6,0,0,1,1.63.34,10.06,10.06,0,0,1,1.6.5,1.73,1.73,0,0,1,.3.57c.14.35.24.55.26.59a.7.7,0,0,0-.29.08,2,2,0,0,0-.1.4h-.22a.89.89,0,0,0,.09.22.6.6,0,0,0-.14.16,11.69,11.69,0,0,1-1.93.25,7.55,7.55,0,0,0-1.22-.31,6.76,6.76,0,0,0-2.3,0,.69.69,0,0,1-.3.16,2.51,2.51,0,0,1-1.07,0c-.12-.05-.3-.19-.51-.3a1.43,1.43,0,0,0-.5.06.78.78,0,0,1-.36-.06l-.28-.08a.73.73,0,0,0-.25.07l-.2.06H79l-.36.16a.6.6,0,0,1-.34,0l-.58-.24a1.62,1.62,0,0,1,0-.41A6.85,6.85,0,0,1,78,31.4c.09,0,.11,0,.08-.06s0,0-.09-.07-.1-.09-.16-.2v-.21a2.63,2.63,0,0,1,.44-.32,6.25,6.25,0,0,1,1.39.08l.51.08a4.74,4.74,0,0,1,.71-.48,4.94,4.94,0,0,0,1-.08V30a.93.93,0,0,0,.22-.16,1.05,1.05,0,0,0,.06-.35c0-.1,0-.29,0-.55a3.54,3.54,0,0,1,0-.58.87.87,0,0,1,.08-.37c.06-.11.14-.3.26-.57a.26.26,0,0,0,.07-.16l-.28-.4a5.45,5.45,0,0,1-.11-.69,1.67,1.67,0,0,1,0-.63,1.27,1.27,0,0,0,.49-.56,1.33,1.33,0,0,1-.07-.3A14.1,14.1,0,0,1,82.07,23a.54.54,0,0,1,.07-.27.4.4,0,0,0,.07-.13c0-.41,0-.61-.09-1h.07a1.11,1.11,0,0,0-.09-.28q.12-.07.06-.15l-.43-.36a3.13,3.13,0,0,1,.31-.68l-.24-.25a4.38,4.38,0,0,0-.12-.67,1.77,1.77,0,0,0-.21-.29c-.14-.16-.23-.35-.19-.41s.13-.14.2-.24a1,1,0,0,0-.07-.62l0-.12-.15-.13a.68.68,0,0,1,0-.42c0-.14,0-.21,0-.23a.45.45,0,0,0-.2-.23l-.09-.11s-.07-.05-.1-.14.06,0,.13-.06a2.66,2.66,0,0,1-.35-.27,1.73,1.73,0,0,1,0-.2l-.27,0a2.5,2.5,0,0,0-.68.09c-.26.06-.39.13-.39.18s0,.18.06.27a.6.6,0,0,1-.27.06l-.37-.07a.94.94,0,0,0-.41,0l-.31.37-.26.12a1.14,1.14,0,0,0,.12.61,3.63,3.63,0,0,1,.21.65c.07.62.09.95.09,1l-.12.07a3.28,3.28,0,0,1,.2.31.85.85,0,0,1,.14.34,1.14,1.14,0,0,1-.09.59c-.08.25-.13.41-.14.47a3.28,3.28,0,0,1,.06.66L78,21.5c-.2.35-.44.51-.72.46a.63.63,0,0,1-.51-.46.94.94,0,0,0,0-.27,2,2,0,0,1-.29-.36s0-.22-.06-.77-.19-1.4-.39-2.5c-.13-.77-.17-1.15-.16-1.1-.09-.23-.19-.48-.28-.74a2.12,2.12,0,0,1-.19-.89,2.14,2.14,0,0,1,.31-.4,3.44,3.44,0,0,1,.32-.36h.15a4,4,0,0,1,.08-.45,1.16,1.16,0,0,0,.2-.22c.24.07.36.1.36.08L77,13.3a.53.53,0,0,1,.38-.2l.45.32a1.6,1.6,0,0,1,.42-.07c.07,0,.21.1.41.29s.36.26.5.23,0-.14,0-.23a3.37,3.37,0,0,1,.51-.2,3.92,3.92,0,0,1,.91-.09,2.57,2.57,0,0,1,.8,0,.35.35,0,0,1,.15.08.3.3,0,0,0,.23,0A7.7,7.7,0,0,1,82.88,13.06Zm.44,2.81c0,.15,0,.24,0,.27h.15s0-.08,0-.16S83.45,15.87,83.32,15.87Zm1,14.35a1.6,1.6,0,0,0,0,.7,1.87,1.87,0,0,1,.07-.22,1.28,1.28,0,0,0,0-.35C84.43,30.23,84.38,30.18,84.31,30.22Zm.87-4a1.85,1.85,0,0,0,.14.38.87.87,0,0,0-.3.51.3.3,0,0,0,.1.21h-.33V27.1l-.21-.16s0-.09-.07-.32ZM84.49,19a.14.14,0,0,1,.15.09.07.07,0,0,1,0,.11.22.22,0,0,1-.16-.11C84.4,19,84.41,19,84.49,19Zm-.28-1.76a5.2,5.2,0,0,0,.45.26c-.14.1-.17.16-.1.19l-.42-.06c0-.13,0-.19-.06-.32ZM85,19.86c.16,0,.26,0,.27.13s0,.12-.17.12c.05,0,.05.07,0,.07h-.12s0,0,0-.1a.45.45,0,0,1-.07-.15C84.85,19.88,84.89,19.86,85,19.86Zm.37,7.86c.39.09.58.17.59.26s-.06.13-.19.22a.59.59,0,0,1-.28.14,2.43,2.43,0,0,1-.19-.54C85.31,27.67,85.33,27.65,85.34,27.72Zm0-11.22a.06.06,0,0,1,.08.06s0,.07-.06.07-.1,0-.1-.07S85.33,16.5,85.39,16.5Zm4.08-.88a.21.21,0,0,1,.14,0s0,0-.07,0a.14.14,0,0,1-.12,0S89.41,15.62,89.47,15.62Z" transform="translate(-7.38 -7.84)"/><path class="a" d="M97.8,12.75a1.24,1.24,0,0,1,.87.09c.09.09.18.37.31.58a1,1,0,0,1,.35,0,1.36,1.36,0,0,0,.43.3s.09,0,.22-.13l.28,0a5.24,5.24,0,0,1,.56,0,3.71,3.71,0,0,0,.59,0,1.69,1.69,0,0,0,.35,0c0-.06,0-.09,0-.15a1.15,1.15,0,0,0,.36-.09,1,1,0,0,1,.19-.28.72.72,0,0,1,.8.21,1.82,1.82,0,0,1,.23,1.39l.53,0a1.09,1.09,0,0,1,0,.26.51.51,0,0,1,0,.28c-.06.19-.16.29-.29.31l-.42,0a.81.81,0,0,1-.14.19c0,.26-.05.65-.09,1.15l-.15.07a.92.92,0,0,0-.09.89.81.81,0,0,0-.19.14.75.75,0,0,0,.29.21.76.76,0,0,0,.42.09h.26c.12,0,.2.22.25.68a1.13,1.13,0,0,1-.14.22h-.32a4.86,4.86,0,0,0,.33.44l-.32,0a.7.7,0,0,1-.06.34,1.64,1.64,0,0,0-.29.34,2.9,2.9,0,0,0,0,.51.39.39,0,0,1-.26.38,1,1,0,0,1-.31.06,1.44,1.44,0,0,1-1-.31,2.84,2.84,0,0,0-.38-.67.94.94,0,0,1-.32-.14.79.79,0,0,1-.11-.42,1.57,1.57,0,0,0-.06-.42l-.33-.2a3.76,3.76,0,0,0,0-.64l-.19-.29-.26-.06a.47.47,0,0,1,0-.36.75.75,0,0,0,0-.33,1.09,1.09,0,0,1-.33-.31.32.32,0,0,1,.13-.39c0-.13-.05-.19-.05-.17a5.08,5.08,0,0,1-.79-.54.84.84,0,0,0-.17-.32l-.74,0a2.44,2.44,0,0,1-.34.08c0-.05,0-.09-.14-.13a2.09,2.09,0,0,1,0,.25s0,0-.12.07a5.08,5.08,0,0,1-.66,0,.8.8,0,0,1-.29-.1.74.74,0,0,0-.38-.1.39.39,0,0,0-.2.05q-.12,0-.24.33a.72.72,0,0,0-.1.42l.22.26L95,16.8l-.11.14A2.34,2.34,0,0,0,94,17a1.71,1.71,0,0,0-.2.52,1.82,1.82,0,0,0-.1.65c.13.17.18.29.17.35l-.13.07c-.06.12-.13.24-.21.38a.58.58,0,0,1,0,.24l-.29.26a1.59,1.59,0,0,0,.1,1.11,1.33,1.33,0,0,0-.24.2c0,.05,0,.08,0,.14a2.7,2.7,0,0,1,.34.34,4.42,4.42,0,0,0-.28,2.12c0,.2.13.47.2.75a3.77,3.77,0,0,0,0,.75,2.27,2.27,0,0,0,.15.75l.19.14a2.67,2.67,0,0,0,.11.83c.07.19.28.51.45.9,0,.25,0,.6,0,1a.17.17,0,0,1,.14.08.13.13,0,0,0,.15.05l.22-.22a1.38,1.38,0,0,1,.55.1,2,2,0,0,1,.52.18,1.31,1.31,0,0,0,.26.45,1.57,1.57,0,0,0,.71.19,1.9,1.9,0,0,1,.72.16c.11.09.25.29.43.45l.39-.09a.76.76,0,0,0,.43-.28l.32-.35a2.71,2.71,0,0,0,.92-.4s0-.12,0-.21.26-.24.41-.38a1,1,0,0,1,0-.3,2.8,2.8,0,0,0,.3-.38,2.2,2.2,0,0,0-.07-.56c-.08-.3-.12-.49-.13-.56a1.6,1.6,0,0,0,.47-.3c0-.06,0-.14,0-.24a3.63,3.63,0,0,1,.17-.58,4,4,0,0,1,.2-.53,2.2,2.2,0,0,0,.49-.17,1.71,1.71,0,0,1,.16-.29.38.38,0,0,1,.22-.06,1.08,1.08,0,0,1,1,.4,2.47,2.47,0,0,0,.16.43,1.68,1.68,0,0,0,.49.6,5.34,5.34,0,0,1,0,.54s-.08.15-.19.35l.29.31c0,.13,0,.19-.06.19s0,0-.06-.05c0,.16.05.24,0,.24a.41.41,0,0,0-.29.06,6.47,6.47,0,0,1,.91.3.41.41,0,0,1,.1.18c0,.14-.11.27-.39.38l-.78.34c-.09.21.07,1-.06,1.42L103,30l-.13.38a.51.51,0,0,0-.25.09,3.13,3.13,0,0,1-.24,1.05,1.37,1.37,0,0,1-.88.48,1.57,1.57,0,0,0-.48,0,1.8,1.8,0,0,1-.36.54,1.21,1.21,0,0,1-.6,0,2.39,2.39,0,0,0-.54,0,1.58,1.58,0,0,0-.42.17.93.93,0,0,1-.53.14c-.24-.12-.56-.26-1-.44a3.21,3.21,0,0,1-.63-.14,4.84,4.84,0,0,0-.48-.37,1.55,1.55,0,0,1-.6,0v-.05a2.86,2.86,0,0,1-.75-.37,8.25,8.25,0,0,1-.69-.66v-.16a3.44,3.44,0,0,1-.86-.66,3.47,3.47,0,0,0-.2-.61A2.13,2.13,0,0,1,93,29v-.14a2,2,0,0,1-.39-.21,1.44,1.44,0,0,0-.18-.53,2.65,2.65,0,0,1-.35-.54,3.38,3.38,0,0,1-.15-1.5c0-.12-.06-.14-.07-.05,0-.22,0-.32,0-.54a1.81,1.81,0,0,1-.38-.37c0-.11,0-.26,0-.46A3.4,3.4,0,0,1,91,24a4.57,4.57,0,0,0,.1-.81c0-.18-.07-.27-.11-.45a3.33,3.33,0,0,1,0-.82,1.94,1.94,0,0,0,0-.78,1.09,1.09,0,0,1-.09-.33.67.67,0,0,0,.16-.27c0-.11,0-.37.07-.69l.13-.07a1,1,0,0,1-.05-.45c0-.07.12-.22.18-.38a2.33,2.33,0,0,1-.11-.86c0-.07.11-.2.17-.35a2,2,0,0,1,0-.91,7.13,7.13,0,0,1,.66-.77,1.18,1.18,0,0,1,0-.43c0-.1.12-.19.28-.25a1.88,1.88,0,0,0,.28-.11,3.13,3.13,0,0,0,.23-.43c.1-.2.23-.33.36-.34l.29,0,.08-.15a.76.76,0,0,0,.42,0c.06,0,.15-.21.28-.5a.84.84,0,0,1,.5-.47,2.24,2.24,0,0,0,.83,0c.09,0,.23-.15.38-.22a2.83,2.83,0,0,0,.9,0C97.12,13,97.47,12.82,97.8,12.75ZM94.41,17.5a.41.41,0,0,1,.16.1c.06,0,.09.09.09.11a.2.2,0,0,1-.11,0A.44.44,0,0,1,94.41,17.5Zm9.77,8.26a.38.38,0,0,1,.31.37.07.07,0,0,1-.08.08.34.34,0,0,1-.24-.14.38.38,0,0,1-.08-.23C104.09,25.78,104.11,25.75,104.18,25.76Z" transform="translate(-7.38 -7.84)"/><path class="a" d="M116.79,11.94a.31.31,0,0,1,.21.13c.08.1.13.15.16.16a1.52,1.52,0,0,0,.68-.09,1.66,1.66,0,0,1,.69-.11c.13,0,.35.13.6.2a8.7,8.7,0,0,1,1.61-.13,1.87,1.87,0,0,1,.71.41.67.67,0,0,1,.33.21s-.15.48-.34,1.31l-.24.23a.7.7,0,0,1-.29.06,1,1,0,0,1-.19-.12.37.37,0,0,0-.35-.06l-.33.28h-.21q-.14.15-.3.3a.71.71,0,0,0-.26-.06c-.11.16-.14.26-.11.29a2.27,2.27,0,0,0-.75.66A2.37,2.37,0,0,0,118,17l.11.12a1.64,1.64,0,0,1-.14.39,1.71,1.71,0,0,0-.19.27.79.79,0,0,1,0,.27,2.68,2.68,0,0,0-.33.37c0,.13.11.31.41.55-.26.75-.36,1.11-.36,1.08l.25.37a1,1,0,0,0,.09.43,1,1,0,0,1,.26.15,1,1,0,0,0,0,.31l-.28.21s0,.22,0,.61l-.21.08a4.68,4.68,0,0,0,0,1.23,6.7,6.7,0,0,0,.22,1.36.87.87,0,0,1,.24.23,2.64,2.64,0,0,1,.13.52c0,.06,0,.09,0,.16l-.08.16c0-.06,0,0,.17.28l0,.24a3.75,3.75,0,0,0,.88,0c0,.21.08.31.13.52a3.23,3.23,0,0,0-.82.18c-.09.11,0,.62.07.69a3.63,3.63,0,0,1,.27.28c0,.07,0,.15.08.23a.88.88,0,0,0,.63.22l.67,0a.56.56,0,0,0,.13.24s-.06.14,0,.37h-.14q0,.11.09.24c.27,0,.66.13,1.19.25l.77.45a1,1,0,0,0,.06.45l.66.37.11.21a2.45,2.45,0,0,0-.43.25l-.23.41a2.91,2.91,0,0,1-1.59.34,3.13,3.13,0,0,1-.44,0,1.82,1.82,0,0,0-.52,0,1.59,1.59,0,0,1-.18.17,10,10,0,0,0-1.37-.19,4.72,4.72,0,0,1-.59.26,4.8,4.8,0,0,1-2.47-.46,2.29,2.29,0,0,1-.17-.23,2.59,2.59,0,0,0,.06-.54h.14a2.68,2.68,0,0,1-.14-.55,1.46,1.46,0,0,1,.24-.49,1.09,1.09,0,0,1,.35-.41l.4-.2a.45.45,0,0,1,.06-.24,6.89,6.89,0,0,0,.62-.39,3,3,0,0,0-.07-.55,3.64,3.64,0,0,0-.13-.6,2.14,2.14,0,0,1-.35-.29,1.18,1.18,0,0,0-.08-.31.75.75,0,0,0,.27-.32,5.74,5.74,0,0,0-.33-1.37c0-.06-.32-.18-.53-.35a1,1,0,0,0-.11-.31,1.79,1.79,0,0,1,.31-.3h.2a3.24,3.24,0,0,1,0-.63l.12-.08c0-.05,0-.25-.08-.29s-.46-.06-.78-.14c-.07,0-.15-.17-.22-.41s-.21-.39-.41-.41a1.34,1.34,0,0,0-.56.09,2.41,2.41,0,0,1-.56.11.5.5,0,0,1-.22,0l-.28-.31a1.47,1.47,0,0,1-.38,0,2.32,2.32,0,0,0-.85,0,3.07,3.07,0,0,0-.32.35h-.18a1.47,1.47,0,0,1-.13.24,2.1,2.1,0,0,0-.51.09l-.26.21a2,2,0,0,1,.06,1,2,2,0,0,1-.45-.07l-.08-.16a.83.83,0,0,1-.33.09c0,.12,0,.19,0,.32a.83.83,0,0,0-.09.16,4.24,4.24,0,0,1,.12.52,2.66,2.66,0,0,0-.14.54.34.34,0,0,0,.09.21c.06,0,.08.09.08.1a1.62,1.62,0,0,0,.06.37.39.39,0,0,0-.17.09l-.26.24c0,.07,0,.17,0,.29a4,4,0,0,1,.5.47,3,3,0,0,1,.11.78,2.47,2.47,0,0,1,0,.76l-.19-.23a1.42,1.42,0,0,1-.5.14,1.46,1.46,0,0,1-.75-.35c0-.09-.05-.36-.1-.82l-.22-.08a1.26,1.26,0,0,1,0-.55,1.59,1.59,0,0,0,0-.54s0-.12-.11-.3a2.37,2.37,0,0,1-.13-.46,5.87,5.87,0,0,0,.11-.86,13.32,13.32,0,0,1,.08-1.83c-.1,0-.11-.13,0-.4a.4.4,0,0,1,.07-.24s0-.2-.17-.55a4.16,4.16,0,0,1-.24-.64,3.56,3.56,0,0,1,0-.8c0-.46.07-.69.07-.71s.13,0,.07-.07a4.86,4.86,0,0,1-.11-.53,2.16,2.16,0,0,1-.06-.63l.15-.15a2,2,0,0,0,0-.67.85.85,0,0,0,0-.26c.08,0,.12-.05.13-.19s0-.21-.09-.23.11-.3.2-.54a2.7,2.7,0,0,0,.2-.82c0-.13,0-.2.06-.33a7.87,7.87,0,0,0-.57-.6,2.46,2.46,0,0,0-.5.1c.12,0,0-.05-.2-.07l-.3.09-.09-.14a4,4,0,0,1-1.17-.17.17.17,0,0,1,0-.19q.08-.15.06-.15a1.59,1.59,0,0,0,.38-.09c.09-.05.24-.2.41-.31a7,7,0,0,0,1.22,0,.33.33,0,0,1,.31-.16.83.83,0,0,1,0,.15l.54,0,0-.08s0-.06.08-.15l.07,0a4,4,0,0,0-.57,0,2.31,2.31,0,0,0,.13-.43l.34-.17h.35a3.5,3.5,0,0,1,.07.45,1.87,1.87,0,0,1,.74-.11l.25.06a2,2,0,0,1,.44-.24.81.81,0,0,1,.4.06c.12.34.29.47.49.4a2.61,2.61,0,0,0,.22-.24,1.39,1.39,0,0,0,.35.06l.14-.2.79,0,.33.41a2.27,2.27,0,0,1-.12.38l-.24.05a2.63,2.63,0,0,1-.21.45l-.55,0a4.26,4.26,0,0,1-.6.44,1.69,1.69,0,0,0-1,.25c-.14.14-.32.58-.57.85a4,4,0,0,1,.12.4c0,.11-.1.37-.06.42s.21.09.32.18a.59.59,0,0,0,0,.28,1.86,1.86,0,0,0,.4.52c-.09.13-.16.25-.21.34h-.41c-.19,0-.28,0-.29.1s.12.22.39.42c0,0,0,.11,0,.19a3.57,3.57,0,0,0-.35.22s0,.18-.06.43c.12.08.27.17.44.26a.33.33,0,0,0,.27-.09l.12-.14a.81.81,0,0,1,.72.2.39.39,0,0,1,.11.28,1.65,1.65,0,0,0,0,.25s.21.15.6.4l.45.06h.71a2.32,2.32,0,0,1,.4-.54,2.19,2.19,0,0,1,.39-.06,1.4,1.4,0,0,1,.4.07.87.87,0,0,0,.47,0c.11,0,.28-.14.46-.21a2.24,2.24,0,0,0,.52-.09l.17-.45a.58.58,0,0,0,.21-.12,3.89,3.89,0,0,1,.07-.67,5.08,5.08,0,0,1,.22-.61,2.34,2.34,0,0,0,.16-.72l-.1-.19a3.84,3.84,0,0,1,.2-.92,2.89,2.89,0,0,0,.16-.28,1,1,0,0,0,.14-.35,1.25,1.25,0,0,1-.15-.36l.1-.34-.55-.05a.28.28,0,0,0,0-.22l0,.15a2.57,2.57,0,0,1-1.17.18,1.61,1.61,0,0,0-.13-.28.81.81,0,0,1-.24-.06c-.21-.14-.28-.53-.14-1.2a2.23,2.23,0,0,0,.36-.24l.08-.2.33-.09a.79.79,0,0,1,.17-.23A4,4,0,0,1,116.79,11.94Zm-7.12,17.23a.85.85,0,0,1,.3.11,1.21,1.21,0,0,0,.23.12.85.85,0,0,1,.39,0,1.05,1.05,0,0,1,.21.24,1.49,1.49,0,0,1,.6,0,2.21,2.21,0,0,1,.28.23,2.57,2.57,0,0,0,.84-.18,10.72,10.72,0,0,0,.78,1,4,4,0,0,1,.42.23,1.69,1.69,0,0,1,.35.63c.13.31.18.52.12.61a.63.63,0,0,0-.31.06c-.06,0-.17.2-.26.25a3.24,3.24,0,0,1-1.5,0,2.69,2.69,0,0,1-.47-.15l-.23.17a8.51,8.51,0,0,1-1.22.11,9.5,9.5,0,0,1-1.81.06,2.26,2.26,0,0,1-.8-.43c-.43-.32-.7-.49-.76-.54.2-.15.3-.25.32-.31a1,1,0,0,0,.15-.48c.25.38.51.57.78.56a1.62,1.62,0,0,0,.52-.12,1.77,1.77,0,0,1,0-.24l-.42-.07-.15-.29a1.65,1.65,0,0,0,.63-.18,2.73,2.73,0,0,1,.19-.54,1.36,1.36,0,0,0,.37-.17.6.6,0,0,1,.06-.24.92.92,0,0,0,.32-.09A.31.31,0,0,1,109.67,29.17Zm1.12,1.38.26.37a.56.56,0,0,1,.24.07l-.1-.32A1.78,1.78,0,0,1,110.79,30.55Zm-.1-2.47a.55.55,0,0,1,.39.21,1.73,1.73,0,0,0,.24.22l.19-.08-.05,0s.07,0,.23,0a1.1,1.1,0,0,0,.15.32h-.46a.75.75,0,0,1,0,.16.45.45,0,0,1-.15.21.58.58,0,0,1-.53-.09.69.69,0,0,1-.37-.41.38.38,0,0,1,.15-.38Zm-.93-5a2.37,2.37,0,0,1,.09.52l.38-.06a1.42,1.42,0,0,1,0-.21q0-.11-.12-.18A1.62,1.62,0,0,1,109.76,23.09ZM112,12.53c.08,0,.11,0,.08.1a.18.18,0,0,1-.16.11c-.09,0-.11,0-.09-.1A.17.17,0,0,1,112,12.53Zm-.08,7.25a.41.41,0,0,0,.06.2l.2.09h-.27A.32.32,0,0,1,111.93,19.78Zm1.82-6.67a.4.4,0,0,1,.1.12l-.38.66h-.36s0-.05-.16-.11l.35-.49A2.32,2.32,0,0,1,113.75,13.11Z" transform="translate(-7.38 -7.84)"/><path class="a" d="M132.82,11.48a4.12,4.12,0,0,1,.87,0,.12.12,0,0,1,.1.08,3,3,0,0,1,.88.66c-.08.12-.21.27-.32.46s0,.33.33.5a1.53,1.53,0,0,1-.27.3l-.91.44a2.14,2.14,0,0,1,0,.62,3.78,3.78,0,0,1-.46.78,3.42,3.42,0,0,1,.37.38,1.76,1.76,0,0,0-.09.2L133,16a8.31,8.31,0,0,0-.19,1.41s.1.14.3.37a2.62,2.62,0,0,0-.08.81l.4.27a1.74,1.74,0,0,1-.22.38,1.69,1.69,0,0,1-.42.15s0,.13,0,.23a.89.89,0,0,0,.32.43h.07c0,.13-.08.36-.14.68l.13.13a2.1,2.1,0,0,0,0,.53c.1.19.23.44.41.74a1.9,1.9,0,0,1,.95.14v.15c-.17.11-.35.23-.52.36a1.14,1.14,0,0,1,.39.45c.07.24.12.5.17.73l.18.23a2.69,2.69,0,0,1,.22,1.19,1,1,0,0,1,.28.22c0,.11.05.17.09.28a.55.55,0,0,0-.16.15,2.82,2.82,0,0,0,.88,1.33,1.65,1.65,0,0,0,.54.29,1.41,1.41,0,0,1,.48.23,1.65,1.65,0,0,1,.25.34,2.08,2.08,0,0,0,.27.38l.18.08.19.2a1.14,1.14,0,0,0,.51.08.89.89,0,0,1,.49,0c.12.07.31.26.56.44a2.85,2.85,0,0,1,.41.07.81.81,0,0,0,.21.2l.41.07.11.15h.12c.46.63.75,1,.77,1s0,.17,0,.31-.09.31-.22.31a4.51,4.51,0,0,0-.54,0,2.1,2.1,0,0,1-.45.37,15.47,15.47,0,0,1-1.72-.1,1.17,1.17,0,0,0-.52.09,1,1,0,0,1-.52.09c-.22,0-.54-.13-.9-.2a2.15,2.15,0,0,1-.86,0c-.15,0-.36-.13-.59-.19a.5.5,0,0,0-.23.11.89.89,0,0,1-.19.11c-.14-.1-.37-.24-.68-.42l-.34-.07a2.48,2.48,0,0,0-.55-.81,1.27,1.27,0,0,0-.55,0,3.11,3.11,0,0,0-.22.24.76.76,0,0,1-.35,0l-.37-.1-.31.09.39.43c.06.08,0,.19-.18.32a2,2,0,0,1-.21.24,5.27,5.27,0,0,0-.95.11,4.57,4.57,0,0,0-.7.15l-.85,0-.18,0-.21.05a4.06,4.06,0,0,0-.69-.19,2.2,2.2,0,0,1-.84.16c-.23,0-.57-.12-.9-.18a3.94,3.94,0,0,1-.63,0l-.54-.28a5.07,5.07,0,0,1-.54-.32,2.71,2.71,0,0,1-.55-.69,2.1,2.1,0,0,1-.38-.88c0-.2.17-.33.54-.42,0,0,.33,0,.85-.07a1,1,0,0,0,.6-.26c0-.31,0-.47.1-.78a2.87,2.87,0,0,1-.21-.36.36.36,0,0,1,.15-.29.53.53,0,0,0,.19-.29.68.68,0,0,0-.1-.37.79.79,0,0,1-.14-.36,2.61,2.61,0,0,1,.34-.68h.07c0-.05-.08-.36-.21-.93l-.09-.05a.1.1,0,0,1-.07-.07.47.47,0,0,1,.17-.3,1.05,1.05,0,0,0,.21-.25.88.88,0,0,1,0-.24c.06,0,.17,0,.19-.08s-.06-.38-.2-.48l-.29-.18a.47.47,0,0,0,0-.23,1.3,1.3,0,0,0,.33-.24,1.63,1.63,0,0,0,.14-.52,1.13,1.13,0,0,1,.16-.49l.25-.26a2.86,2.86,0,0,0,.38-.91,2.65,2.65,0,0,1,0-.76l.13-.28a1,1,0,0,0,.1-.38s0,0-.08-.09,0-.17,0-.21a2.33,2.33,0,0,0,.21-.15,2.69,2.69,0,0,0,.14-.35,1.72,1.72,0,0,1,.13-.88c.06-.08.28-.21.46-.38a.54.54,0,0,1,0-.3,6.54,6.54,0,0,0,.72-.5,2.84,2.84,0,0,0,.34-.83,2.46,2.46,0,0,1,.32-.77c.08-.1.22-.23.37-.38,0,0,0,0,.08-.06a1.11,1.11,0,0,0,.11-.17.36.36,0,0,0-.1-.31c-.09-.12-.12-.23-.07-.31a2.14,2.14,0,0,1,.76-.57.76.76,0,0,0,.46-.16c.08-.11.22-.31.45-.58C131.88,11.93,132.19,11.78,132.82,11.48Zm-3.37,15.23c-.22.05-.3.29-.2.76h-.6l.2.51-.14.16a1.24,1.24,0,0,1,.17.23c.21.05.24.07.1.08a1.91,1.91,0,0,1,1.51.42,1,1,0,0,0,.41.33,1.06,1.06,0,0,1,.53,0c.08,0,.22.19.38.3l.4.07.13-.24a1.08,1.08,0,0,1-.09-.3h.14a1.71,1.71,0,0,0,.26-.46c.13-.28.21-.46.23-.53l-.31-.36a.46.46,0,0,0-.35-.21,2,2,0,0,1-.35,0c-.15-.21-.22-.32-.35-.53a4,4,0,0,0-1-.2A4.79,4.79,0,0,0,129.45,26.71Zm.72-7.88a3,3,0,0,0-.69.54.41.41,0,0,1,0,.23.64.64,0,0,1,.25.15,1.86,1.86,0,0,0-.57.35.39.39,0,0,0,0,.26.64.64,0,0,1,0,.2c0,.07-.1.17-.29.29,0,.18-.09.44-.17.77-.32-.05-.45-.07-.39-.07v.28h.45c0-.06,0-.12.14-.21.31.53.47.9.42,1.12l-.17.13a.26.26,0,0,0,0,.23s.06.07.14.07l.28-.23h.64c.06-.2.13-.5.22-.89-.09-.1-.24-.25-.44-.43a2.36,2.36,0,0,1-.38-.15.6.6,0,0,0-.06-.24,1.58,1.58,0,0,0,.54.13q.34,0,.36-.39a4.51,4.51,0,0,0-.06-.64,2.65,2.65,0,0,1,0-.65c-.15-.12-.23-.17-.23-.15s.05-.22.17-.61Z" transform="translate(-7.38 -7.84)"/><path class="a" d="M165.26,25.06a1.62,1.62,0,0,1,.55.13l.4.15a3.87,3.87,0,0,1,1.63,0c.11,0,.31.19.52.31l.3-.18c.09,0,.29.13.6.4a1,1,0,0,1,.28.19l.07.18c0,.23,0,.62.08,1.17a5.33,5.33,0,0,0-.73.29v.17q-.19.11-.21.24a.54.54,0,0,1-.09.25,1.41,1.41,0,0,1-.6.44l-.15.07a1.82,1.82,0,0,1,0,.77c0,.06-.14.15-.22.24s-.05.37-.09.81-.06.68-.06.7l.45.55a1.07,1.07,0,0,1-.23.24,4.11,4.11,0,0,1-.07,1.6,3.34,3.34,0,0,1,.3.28l-.3.67a3.64,3.64,0,0,1,.07.52.11.11,0,0,1,.09.13c0,.07,0,.11.06.13s-.1.13-.15.22a1,1,0,0,0,0,.54,1.06,1.06,0,0,1,.05.5,1.6,1.6,0,0,1-.23.24.79.79,0,0,0,.07.37,1,1,0,0,1,.08.25,1.17,1.17,0,0,0-.07.65s.14.12.22.18c.15.32.2.49.15.53a2.94,2.94,0,0,1-.3.58l.08.44a.31.31,0,0,1,.15.09,10.39,10.39,0,0,0-.33,2.16.31.31,0,0,0,.07.23.7.7,0,0,0,.18.13c.1.63.15,1,.15,1.12a.83.83,0,0,1-.12.37.82.82,0,0,0-.1.48c0,.17.19.36.47.53s.44.23.65.34a3.33,3.33,0,0,1,.85.61,2.12,2.12,0,0,1,.33,1.09l-.15.08s.06.05,0,.12,0,.13,0,.14l-.38.08a.39.39,0,0,1-.06.21,1.94,1.94,0,0,1-.74.29A2.16,2.16,0,0,0,168,48a13.17,13.17,0,0,1-1.33,0l-.37-.19-.23.08-.22.08c-.27,0-.63,0-1.1-.06l-.15.17a1.38,1.38,0,0,1-.83-.13,1.15,1.15,0,0,1-.48-.53l-.39-.72c-.08,0-.13,0-.14,0a.86.86,0,0,1,0-.15.54.54,0,0,0,.3-.06c.07-.08.05-.33,0-.35a1.6,1.6,0,0,1-.3.24l-.38-.12a1.6,1.6,0,0,1-.15.57,2,2,0,0,0-.37.23s0,.25.07.62c0,0-.09.13-.15.17a2.79,2.79,0,0,1-1.47-.22c-.23-.27-.36-1.48-.83-1.9a4.11,4.11,0,0,0,.23-.59V45c-.08-.05-.12-.26-.11-.64a2.28,2.28,0,0,0,0-.67c-.08-.1-.18-.23-.28-.38a.69.69,0,0,1,0-.24.85.85,0,0,1,.14-.38.8.8,0,0,0,.11-.5c-.1-.27-.21-.62-.35-1.07a2,2,0,0,0,0-.7c0-.15-.16-.45-.3-.84l-.15-.1a2.21,2.21,0,0,1,0-.71,2.44,2.44,0,0,0,.05-.67c-.08-.3-.21-.78-.38-1.43l-.15-.2a9.21,9.21,0,0,0-.07-1.25c0-.19-.21-.81-.53-1.82a.78.78,0,0,0-.15-.38s0-.11.08-.25a.41.41,0,0,0,.15-.07,9.05,9.05,0,0,0-.15-1.41c-.06-.29-.24-.78-.43-1.4L157,29.8v-.6l-.15-.11a3,3,0,0,1,.08-1.32,7,7,0,0,0-.75-.58,1.2,1.2,0,0,1-.23.22,15.78,15.78,0,0,1,.23,1.64l.37.07a1,1,0,0,1-.37,0,.32.32,0,0,1-.08.25q.08.16.15.36c-.05,0-.05.17-.05.4a.77.77,0,0,0,.09.41l.26.31c-.11.18-.24.39-.37.64a4.34,4.34,0,0,1-.08.67l-.15.15a8.83,8.83,0,0,1-.07,1.92l-.38.2a.8.8,0,0,0-.05.23,3.72,3.72,0,0,0,.28.52,3.85,3.85,0,0,0,.52.71c-.06.29-.11.59-.15.92a2.54,2.54,0,0,0,.53.53c-.07.11-.14.25-.23.41a2,2,0,0,0,.08.61,2.41,2.41,0,0,1,.1.57,1,1,0,0,1,0,.24l-.15,0a1.18,1.18,0,0,1-.07.35l.15.11a5.77,5.77,0,0,0,.07.63l-.07.11c0,.07,0,.12,0,.15q-.23.26-.15.33a1.06,1.06,0,0,1-.13,1.31,1.88,1.88,0,0,0-.55.42,1.07,1.07,0,0,0,0,.45s0,.1-.07.17v.09c.38.17.76.34,1.12.52a2.71,2.71,0,0,1,1,.62s0,.08,0,.09l-.1.05a0,0,0,0,0,0,0,.58.58,0,0,1,.22.41c0,.17,0,.35,0,.51a9.14,9.14,0,0,1,1.05.38,4.63,4.63,0,0,1,.3,1,1,1,0,0,0-.3.05s-.08.16-.15.25-.44-.06-.75-.08-.95,0-1.7,0l-.37.13-.23-.21a5.9,5.9,0,0,1-.87-.13l-.23-.21a5.51,5.51,0,0,1-1.7-.28,5.26,5.26,0,0,1-.6-.37s-.05-.18-.15-.48a2.62,2.62,0,0,1,1.28-.46,1,1,0,0,0-.08-.29c.12-.23.29-.53.5-.9a7.51,7.51,0,0,1,1.13-.68V43a9.74,9.74,0,0,1-.83-1,.82.82,0,0,1,.14-.47,1,1,0,0,0,.16-.38,12.66,12.66,0,0,1-.15-1.51l.15-.33a2,2,0,0,1,0-.69c0-.07.19-.21.23-.32a1.17,1.17,0,0,0-.1-.73,4.28,4.28,0,0,1-.2-.57,1.46,1.46,0,0,1,.07-.94l.15-.06a3.81,3.81,0,0,0,0-1.43l-.22-.31v-.09c0,.06,0,0,.07,0s0-.14,0-.15v-.14c0-.24,0-.6-.07-1.09a1.48,1.48,0,0,1-.15-.48,7.23,7.23,0,0,0,.15-.92,27.67,27.67,0,0,0-.15-3c-.07-.13-.14-.3-.23-.5a4.49,4.49,0,0,0-.15-1.7,2.36,2.36,0,0,0-1.32-1.2.55.55,0,0,1-.3-.07s-.11-.18-.23-.33v-.45a.73.73,0,0,0,.23-.12c.18.08.68.27.82.2a4.61,4.61,0,0,1,.43-.41.58.58,0,0,1,.45.23,1.7,1.7,0,0,0,.3.29l.52-.15a.52.52,0,0,1,.08-.25l.65.14a.75.75,0,0,1,.07.19c.14,0,.6.19.68.14s.06-.16.07-.16,0,.16.08.28l.75.15v.09a2.42,2.42,0,0,1,1.25.14c.05,0,.12.24.22.39a.64.64,0,0,1,.38.13.82.82,0,0,1,.17.56c0,.39,0,.61,0,.67a2.11,2.11,0,0,0,.16.37,1,1,0,0,1,.13.51A3.72,3.72,0,0,0,159,28c0,.29-.06.61-.08,1,.14.18.33.41.58.7a5.6,5.6,0,0,0-.08,2,.76.76,0,0,1,.23.21V32a2.36,2.36,0,0,1,.52.17v.26a1.44,1.44,0,0,0-.45,0,.52.52,0,0,1-.15.3c.12.2.3.46.53.78,0,0,0,.08.07.28-.33.16-.52.48-.45.64s.25.26.38.46a.39.39,0,0,1-.08.34l.38.57a1.86,1.86,0,0,1-.45.65,1,1,0,0,0,.07.45,2.91,2.91,0,0,1,.45.38,4,4,0,0,1,.38,1.53,1.93,1.93,0,0,1,.45.14.56.56,0,0,0,.17-.22.52.52,0,0,0,.08-.25,1.7,1.7,0,0,0-.11-.49,1.61,1.61,0,0,1-.12-.53,1,1,0,0,1,0-.23.86.86,0,0,0,.3-.23.52.52,0,0,0,0-.37.75.75,0,0,1,0-.32,4.53,4.53,0,0,0,.45-.74,1,1,0,0,1,0-.35.81.81,0,0,0,.3-.29c0-.09-.08-.26-.15-.45a3,3,0,0,1,0-1.4,3.71,3.71,0,0,0,.37-.45,1.1,1.1,0,0,0-.08-.5,1,1,0,0,1-.07-.56,2.33,2.33,0,0,0,.38-.56,1.46,1.46,0,0,0,0-.29,3.06,3.06,0,0,0-.11-.71,2.06,2.06,0,0,1-.06-.74h.07l.08-.25c.17-.13.25-.21.25-.23l0-.18a1.3,1.3,0,0,1,.08-.34c.07,0,.18-.07.2-.12s0-.33-.14-.53a1,1,0,0,1-.14-.54l.15-.16a1.37,1.37,0,0,1,.08-.51,1.42,1.42,0,0,0,.35-.22,1.13,1.13,0,0,0,.07-.22,2.52,2.52,0,0,1,.68-.6A1.7,1.7,0,0,1,165.26,25.06Zm.28,6.25-.6.13c-.37.09-.57.15-.58.19s0,.38-.07.68l-.15.07v.26H164a.63.63,0,0,0,.14.42,1.17,1.17,0,0,1,.16.27,2.9,2.9,0,0,0-.15.86l.6.4a3.91,3.91,0,0,0,.15.45,1,1,0,0,0-.3.23,1.94,1.94,0,0,1-.08.66,1,1,0,0,0-.37.14.44.44,0,0,0-.08.28,1.06,1.06,0,0,0,.23.51c0,.27,0,.36-.08.26,0,.07,0,.1-.07.08l-.53.38a2.34,2.34,0,0,1,.28.69c0,.06-.06.11-.18.16a.49.49,0,0,0-.25.33,3.23,3.23,0,0,1,.08.61,3.26,3.26,0,0,1-.11.31c-.08.19-.11.3-.09.34l.12.36a.52.52,0,0,1-.12.25l-.23,0a.88.88,0,0,1-.1.17.35.35,0,0,0,0,.25,2,2,0,0,0,.09.29.85.85,0,0,1,.06.42l-.3.41h-.15v.58l.15.1a1.1,1.1,0,0,0-.15.6l.38.46v.26l-.23.07-.07.49c.1.09.28.22.45.39a.94.94,0,0,1,.26.54,1,1,0,0,0,.06.26,1.4,1.4,0,0,0,.48-.23c-.15-.1-.23-.19-.23-.24s.06-.09.18-.14.18-.09.2-.13V45c.13.1.18.17.15.18a1.49,1.49,0,0,0,1-.2,1.71,1.71,0,0,1-.07-.49c0-.1.12-.21.31-.34a.8.8,0,0,0,.34-.4,2.71,2.71,0,0,0-.05-1c-.08-.44-.17-.66-.25-.64l.07-.17a2.1,2.1,0,0,0,.3-.93,2.75,2.75,0,0,0-.15-1l-.15-.1a1.6,1.6,0,0,1,.23-.84H166a2.2,2.2,0,0,0-.05-.76,2.23,2.23,0,0,0-.19-.69c-.06-.07-.18-.15-.21-.2s0-.33.17-.46.2-.23.2-.29q-.07-.35-.15-.36l.23-.58a1.84,1.84,0,0,1-.38-.78,2.11,2.11,0,0,1,.38-.83l-.3-.29v-.08a.38.38,0,0,0-.38.05c-.13.08-.3.1-.35,0a3.91,3.91,0,0,1-.15-.44c.17,0,.22-.05.15-.08s0,0,.08-.16l.15.1c.12.18.23.22.35.12s0-.1,0-.23a1,1,0,0,0,.07-.26,4.57,4.57,0,0,1,.15-1.36C165.76,31.45,165.69,31.38,165.54,31.31ZM163.19,46a1.22,1.22,0,0,1,.2.1A.34.34,0,0,0,163.19,46Zm1.7-16.49a4.58,4.58,0,0,0-.15,1.42l.45.14a7.57,7.57,0,0,0,.2-1.42A2.66,2.66,0,0,1,164.89,29.46Z" transform="translate(-7.38 -7.84)"/><path class="a" d="M176.29,31.59s.49,0,1.4,0a3.32,3.32,0,0,1,.7,0c.15,0,.42.19.7.3a1.61,1.61,0,0,1,.62-.3.84.84,0,0,1,.55.37l.3.37a.76.76,0,0,0,.38.08,1.91,1.91,0,0,1,.47,0,2.74,2.74,0,0,1,.2.26.34.34,0,0,1,.2,0,.6.6,0,0,1,.22.36,1.52,1.52,0,0,0,.17.41.9.9,0,0,0,.46.23,1.08,1.08,0,0,1,.5.26,1.42,1.42,0,0,1,.24.56,3.37,3.37,0,0,0,.19.56,4.41,4.41,0,0,1,.47.52,1.82,1.82,0,0,0-.07.25,1.46,1.46,0,0,1,.42.66V37h.15a.37.37,0,0,0-.07.14,1,1,0,0,1,.15.23,4.41,4.41,0,0,1,0,1.82,1.64,1.64,0,0,0-.23.23,1.36,1.36,0,0,0,.07.59,2.44,2.44,0,0,1,.08.41c-.05.2-.1.46-.15.77a.3.3,0,0,1,.08.29.94.94,0,0,0-.43.41,1.7,1.7,0,0,0,.18.72,1.69,1.69,0,0,1,.17.72.82.82,0,0,1-.2.45l-.27.4a5.91,5.91,0,0,1-.35,1,6.18,6.18,0,0,0-.58.42,1.22,1.22,0,0,0-.07.25h-.13s0,.16-.07.3a1.82,1.82,0,0,0-.28.16c0,.07,0,.22-.07.25s-.28.08-.5.17c0,.07-.08.16-.13.25a2.64,2.64,0,0,0-.77,0c-.12,0-.35.2-.65.34l-.05.17a2.78,2.78,0,0,0-.5.11c-.08,0-.2.14-.35.24l-.35,0a19,19,0,0,1-2.33.44c-.26-.13-.64-.28-1.12-.46a1.12,1.12,0,0,1-.48,0s-.17-.25-.27-.3-.58-.16-1-.37a6.46,6.46,0,0,0-.35-.56,3.66,3.66,0,0,1-.78-.44,7,7,0,0,0-.2-.79,12.05,12.05,0,0,1-.77-2,7.47,7.47,0,0,0,.15-.93l-.3-.74a3.58,3.58,0,0,0,.07-.93c0-.17-.09-.38-.12-.57s0-.17,0-.23a3.53,3.53,0,0,0,0-.39,2.74,2.74,0,0,0,0-.57,1,1,0,0,0-.18-.37,1,1,0,0,1-.17-.51,2.32,2.32,0,0,1,.35-1.1l.15-.08a1.72,1.72,0,0,0,0-.56v-.23a6.36,6.36,0,0,1,.27-1,1.7,1.7,0,0,1,.78-.83v-.08H173a8.62,8.62,0,0,1,.42-1.11.72.72,0,0,0,.35-.13c.08-.08.2-.38.4-.63a1.63,1.63,0,0,0,.35-.05,2.84,2.84,0,0,1,.5-.46A3,3,0,0,1,176.29,31.59ZM178.74,35c0,.18-.11.47-.23.89a1,1,0,0,1-.27.08,5.31,5.31,0,0,1-.71-.13,4.4,4.4,0,0,0-.84-.11,1.83,1.83,0,0,0-.4,0c-.17.13-.4.29-.7.48a1,1,0,0,0-.3,0v.17a6.13,6.13,0,0,1-.63.7.9.9,0,0,0-.35.08s0,.21,0,.39a2.83,2.83,0,0,1,0,.31.57.57,0,0,0-.23.19.91.91,0,0,0-.12.56v.51a2.33,2.33,0,0,0-.27.3,2.45,2.45,0,0,0,.35.31,3.88,3.88,0,0,0-.28,1.74c0,.1.12.19.3.28a1.41,1.41,0,0,1,.33.2,11.19,11.19,0,0,0,.5,1.09.84.84,0,0,0,.57.06,1.58,1.58,0,0,1,.6,0,5.22,5.22,0,0,1,.5.46.52.52,0,0,0,0,.22,2.75,2.75,0,0,0,.43.08,11.33,11.33,0,0,0,1.4.51,2.25,2.25,0,0,1,.5-.11l.55.29a4.81,4.81,0,0,1,.42-.63,5.85,5.85,0,0,0,.7-.42v-.24a.18.18,0,0,0,.13-.2s0-.15-.05-.33a.94.94,0,0,1,0-.41,2,2,0,0,0,.47-.46v-.77a.5.5,0,0,0,.23-.18.38.38,0,0,0-.08-.16.58.58,0,0,1-.27,0,.33.33,0,0,1-.26-.27,4,4,0,0,1-.09-.48s0,0,.05-.14a2.5,2.5,0,0,0,.5-.1,2.49,2.49,0,0,0-.08-1.15,2,2,0,0,0-.47-.37.72.72,0,0,1,.06-.53,1.35,1.35,0,0,0,.14-.33s0-.21-.11-.53a1.75,1.75,0,0,0-.17-.53l-.35-.16a1.44,1.44,0,0,0-.22-.46,4.57,4.57,0,0,1-.75-.21c0-.08,0-.2-.08-.25S178.92,35.16,178.74,35Z" transform="translate(-7.38 -7.84)"/><path class="a" d="M194.85,31.77a4,4,0,0,1,1-.07,1.64,1.64,0,0,1,.84.16,2.76,2.76,0,0,0,.58.47,3.12,3.12,0,0,1,.89-.11c.14,0,.4.1.71.16a2.41,2.41,0,0,1,0,.64,1.34,1.34,0,0,1-.44.3l-.06-.25c-.09.08-.11.13-.11.14a1.8,1.8,0,0,0,.06.33,2.13,2.13,0,0,0,.21.18c0,.15,0,.38,0,.67s.2.3.34.49h.1c0,.16-.06.32-.1.5a.44.44,0,0,0-.17.08,1.41,1.41,0,0,0,0,.5,2.86,2.86,0,0,1,0,.53l-.1.23a2.21,2.21,0,0,0,0,.54c0,.33,0,.59,0,.74a2.7,2.7,0,0,0,.5.1,5.92,5.92,0,0,0-.23.86.12.12,0,0,0,.06.12.36.36,0,0,1-.06.22v.13a2.28,2.28,0,0,1,.23.3,5,5,0,0,0-.11.63,2.2,2.2,0,0,0,.17.39.17.17,0,0,1,.14,0s0,.1,0,.34c0,0,.06,0,.1.11a.31.31,0,0,1,.27,0,3.51,3.51,0,0,1,.17.69s0-.05.06-.14l.42-.08a2.57,2.57,0,0,0,.11.6.47.47,0,0,0,.24.18.64.64,0,0,1,.24.13.54.54,0,0,0,0,.18l.1,0c.1,0,.19.15.27.35a1.47,1.47,0,0,1,.13.59.43.43,0,0,1-.06.24c0,.06-.13.14-.18.22s-.14.34-.26.59l-.54.38a4.63,4.63,0,0,1-.6.39.67.67,0,0,1-.32,0h-.25l-1,.24a9.18,9.18,0,0,1-1.06.22l-.63.11-.2.16a.73.73,0,0,1-.3.16.48.48,0,0,0-.12-.16,1.36,1.36,0,0,0-.45-.17,1.35,1.35,0,0,1-.65,0,.57.57,0,0,1-.29-.57,5,5,0,0,1,.11-.79l-.59-.21c-.09.09-.2.2-.32.34a1.93,1.93,0,0,1-.05.56,1.42,1.42,0,0,1-.48.54,2.62,2.62,0,0,1-.87.53,1.57,1.57,0,0,0-.38,0l-.14.06s-.07,0-.06,0h-.82a2.23,2.23,0,0,1-.32.25,4.06,4.06,0,0,1-1.65.17,1.87,1.87,0,0,0-.45,0c-1.08.25-1.76.19-2-.16a1.53,1.53,0,0,0-.15-.42h-.12c-.22-.07-.3-.34-.25-.82a1.3,1.3,0,0,1,1.32-1.29l.43,0h.37c.37,0,.6-.14.7-.33v-.21a1.07,1.07,0,0,0,.05-.43l-.12-.26a2.77,2.77,0,0,0,0-.91,3.94,3.94,0,0,1-.2-.41,1.87,1.87,0,0,1,.07-1.05c.07-.11.25-.27.38-.46v-.51a2.32,2.32,0,0,0,.2-.36,1.09,1.09,0,0,0-.08-.47,1.63,1.63,0,0,0-.12-.35,4.88,4.88,0,0,0,.07-1.34,4.34,4.34,0,0,0-.25-.55v-.21a2.18,2.18,0,0,0-.15-.63.48.48,0,0,1-.2-.05.38.38,0,0,0,0-.21h-.2a1.2,1.2,0,0,0-.25-.28.91.91,0,0,1-.45,0,.55.55,0,0,0-.15-.2s-.05,0-.12,0-.11,0-.13-.06l-.07-.2a.28.28,0,0,0-.14,0,.23.23,0,0,1-.11,0c0-.36.05-.54.05-.52a2,2,0,0,0-.14-.35,1.44,1.44,0,0,1-.14-.55.83.83,0,0,1,0-.22.54.54,0,0,0,.12-.22l.2,0a.46.46,0,0,1,.25,0,.54.54,0,0,1,.23.05.93.93,0,0,0,.25.06,3.86,3.86,0,0,1,.65-.25,2.64,2.64,0,0,1,1.25,0c.49.12.81.29.92.51a.63.63,0,0,0,0,.26,2.67,2.67,0,0,0,.4.06l.07.12a1.75,1.75,0,0,0,.83.15c.19,0,.38-.21.57-.55s.35-.52.47-.54l.26,0a2.71,2.71,0,0,1,.48-.59A4.22,4.22,0,0,1,194.85,31.77Zm.29,2.85a.61.61,0,0,1-.06.22c0,.09-.09.26-.17.52a5.26,5.26,0,0,1-.65-.09.82.82,0,0,1-.12.3,2.88,2.88,0,0,0-.29.3.2.2,0,0,0,0,.29h-.14a.87.87,0,0,1-.42.18.22.22,0,0,0-.07-.21.48.48,0,0,1,0,.29,2.56,2.56,0,0,1-.16.23v.26a4.14,4.14,0,0,0-.45.47v.13a4.21,4.21,0,0,0-.68.41c-.2.19-.47.64-.83,1.06a4.6,4.6,0,0,1,.12,1v.13c0,.2.08.29.13.29s.17,0,.19,0l.07.19a.43.43,0,0,1-.07.22c0,.05-.25.14-.32.25a1.68,1.68,0,0,0,0,.69,1.72,1.72,0,0,0,.19.33,1.89,1.89,0,0,1-.19.79,1.91,1.91,0,0,0,0,.21s.3,0,.51.08a2.85,2.85,0,0,0,.39.38v0a1.61,1.61,0,0,1,.49-.11,3.8,3.8,0,0,1,.38.08q0,.23,0,.21a.37.37,0,0,1,.19,0c.17,0,.41.13.71.25l.07.12a2.65,2.65,0,0,0,.84-.38l0-.14a5.11,5.11,0,0,0,1.06-.44v-.13L196,43a.72.72,0,0,0,.07-.27c0-.13,0-.23,0-.28a1.8,1.8,0,0,0,.31.08,2.76,2.76,0,0,1,.11-.62,1.42,1.42,0,0,0-.15-.43.86.86,0,0,1-.13-.49l.17-.1v-.21l.11-.07a2.22,2.22,0,0,0,0-.5,1.84,1.84,0,0,0-.14-.52l-.1,0a1.88,1.88,0,0,1,.05-.66,3.1,3.1,0,0,1,.16-.59l.11-.1a.37.37,0,0,0-.06-.26.71.71,0,0,1-.09-.26c0-.26.13-1,0-1.23a1.48,1.48,0,0,0-.41-.15,2.12,2.12,0,0,0,.3-1,.92.92,0,0,0-.07-.38c-.06-.12-.21-.18-.45-.21Z" transform="translate(-7.38 -7.84)"/><path class="a" d="M206.68,29.77a.73.73,0,0,1,.21-.06,3,3,0,0,1,1,.06,1.69,1.69,0,0,1,.68.23,1.47,1.47,0,0,0,.06.27l.21,0c0,.08,0,.16.06.26l.1,0c.07.16.1.24.18.39h0s0,.11-.09.37a2.2,2.2,0,0,1,.06.6c0,.14-.1.39-.18.7l.45.34a2.79,2.79,0,0,0,0,.47l-.18.11a3.58,3.58,0,0,1,0,.81q0,.11-.09.12h-.12v.27l.27-.12a.75.75,0,0,0,.16.24s0,.25-.1.64c.09.05.11.18.06.4l-.12,0q-.06.14-.15.3a3.83,3.83,0,0,0,.15.66q-.12.12-.12.15a.58.58,0,0,1,.18.11l-.21,1.28a2,2,0,0,1,.43.57,1.84,1.84,0,0,1-.12.3.88.88,0,0,0,.18.78s.1.06.25.09a1.86,1.86,0,0,0,.4,0l.06.19a.45.45,0,0,0,0-.18L211,40q0,.09.06.09l.28-.11a2.79,2.79,0,0,0-.12.35,2.7,2.7,0,0,0,.06.4l.32-.41,0-.26a.73.73,0,0,0,.1-.14,1.93,1.93,0,0,1,.5.1.88.88,0,0,0,.12.17,1.43,1.43,0,0,1,.61,0c.13,0,.27.27.39.63a2,2,0,0,1,.13,1l-.39.68a1.65,1.65,0,0,1-.74.69,9.45,9.45,0,0,0-1.12.16l-.6.26a3,3,0,0,1-.66.21,2.55,2.55,0,0,1-.42,0,1.36,1.36,0,0,0-.5.06,2,2,0,0,1-.33.2,2.35,2.35,0,0,0-.37-.14,5.67,5.67,0,0,0-1.41.2l-1.94.37-.06-.11c-.22,0-.58.16-1,.23a3.22,3.22,0,0,1-.89-.16.4.4,0,0,1-.25,0v-.23a.76.76,0,0,1-.18-.09l.06-.52a.77.77,0,0,1-.06-.27,1.06,1.06,0,0,1,.49-.86,1.8,1.8,0,0,1,.75-.19,2.39,2.39,0,0,0,.72-.13,3.34,3.34,0,0,0,.27-.34l.71-.22,0-.21h.45l.31-.21a4.3,4.3,0,0,0,.27-1.81c0-.68,0-1.43.06-2.06,0-.18.09-.46.16-.81a5.73,5.73,0,0,1-.06-1.21c0-.25.07-.44.06-.51l-.1-.25a4.6,4.6,0,0,0,0-1.31c0-.08-.09-.22-.16-.4l-.09,0-.18-.44a.57.57,0,0,0-.44-.07,4.2,4.2,0,0,0-.57.17,2.88,2.88,0,0,1-.54.17,10.37,10.37,0,0,1-1.29,0,.81.81,0,0,1-.34,0,2.26,2.26,0,0,0-.12-.49l-.18-.31a.51.51,0,0,1-.07-.41c0-.08.1-.24.31-.48V30.8a3.61,3.61,0,0,1,1.32-.56c.06,0,.2.14.37.21a4.86,4.86,0,0,1,.76-.12s.08,0,.19.09a.32.32,0,0,0,.29,0,1.1,1.1,0,0,0,.58-.37C206.51,30,206.56,29.91,206.68,29.77Zm.91-5.52a.87.87,0,0,1,.41.14,1,1,0,0,1,.35.25c0,.1.08.28.16.45a1.89,1.89,0,0,1,.39.14.8.8,0,0,0,.16.32c.06.07.23.19.39.37a2,2,0,0,1,0,.76c0,.26-.05.53-.08.8a1.06,1.06,0,0,0-.39.06,1.51,1.51,0,0,0-.14.23,1,1,0,0,0-.12.23.6.6,0,0,1,0,.34s.06,0,.12.05a1.09,1.09,0,0,0-.06.28c-.34.09-.48.14-.43.15a1.35,1.35,0,0,0-.39-.11.8.8,0,0,0-.47,0v.15l-.21,0a.53.53,0,0,1-.06.13v.07a.21.21,0,0,1-.19,0,.45.45,0,0,0-.14-.07,3.71,3.71,0,0,1-.7,0,1.47,1.47,0,0,0-.15-.45,6.49,6.49,0,0,1-.37-.57,4.67,4.67,0,0,1-.06-1,5.15,5.15,0,0,1,.06-1,.31.31,0,0,1,.17-.2.61.61,0,0,0,.2-.18l.15-.65a3.78,3.78,0,0,0,.7-.18l.06-.15A1.26,1.26,0,0,1,207.59,24.25Zm3.51,14.92c.25-.1.38-.08.38.07s-.06.07-.16.08-.34.1-.34,0a.17.17,0,0,1,.06-.11s0-.06,0,0Z" transform="translate(-7.38 -7.84)"/><path class="a" d="M219.66,23a.64.64,0,0,1,.69.22,3.7,3.7,0,0,1,.31.59.29.29,0,0,0,.07.25,3.07,3.07,0,0,0,.6.11,1.77,1.77,0,0,1-.12.34.46.46,0,0,0-.22.08s0,.08-.07.19a1.86,1.86,0,0,0,.34.19,1.81,1.81,0,0,0,0,.59l.22.06c.14.1.18.42.12,1-.18,0-.47-.06-.87-.13v.26c.48,0,.77.11.87.27a.4.4,0,0,0,.07.21c.06,0,.32.07.57.15l.12.21a2.1,2.1,0,0,1,.65-.18l.2.12.78-.07c0-.08,0-.22.08-.4a1.08,1.08,0,0,1,.35,0,.93.93,0,0,0,.07.15l.43.18a5.44,5.44,0,0,1,.93-.14c.31,0,.54.08.6.23a.39.39,0,0,0,0,.22,2.29,2.29,0,0,1,.5.32v.14h.15c.09,0,.16.1.15.31s0,.29,0,.44l-.36.06a4.6,4.6,0,0,1-.35.41,2.85,2.85,0,0,1-1.13.51,3.1,3.1,0,0,1-1,0c-.12,0-.26-.09-.43-.13a.5.5,0,0,0-.36.14,1.92,1.92,0,0,1-.27.17,2.76,2.76,0,0,0-.7.06,7.3,7.3,0,0,0-.84.31,7.37,7.37,0,0,1-.15,1.6l-.12.2v.21s.06,0,.07,0a.15.15,0,0,1,0,.09c-.1.7-.11,1.07,0,1.12s.11.23,0,.41-.13.21-.2.34a.41.41,0,0,0,.15.27,1.13,1.13,0,0,0-.07.47c.05,0,.17,0,.19,0a3,3,0,0,1,.08.53h.07a.21.21,0,0,0-.07.15A2.28,2.28,0,0,0,222,36c-.05.12-.09.17-.13.18s0,0,0-.05v.14h.07a1.37,1.37,0,0,1,.13-.2s.1,0,.22,0,.11-.12.2-.2l.11.14.19.23v-.14l.62-.17a1.57,1.57,0,0,1,.08-.29,1,1,0,0,0,.42,0,.6.6,0,0,1,0-.19h.08c.3-.26.46-.43.47-.51s0-.29-.07-.51a6.24,6.24,0,0,0,.22-.63,6.6,6.6,0,0,0,.83-.1,1.59,1.59,0,0,1,.82,0,1.07,1.07,0,0,1,.46.61,3.65,3.65,0,0,0,.36.72,1.91,1.91,0,0,0,.72.31v.07a.56.56,0,0,1,.2,0c.15.06.22.13.22.21s-.16.19-.5.42c.15.17.27.32.35.43v.26c-.08,0-.19.11-.31.2s-.19.15-.19.2.14.12.43.23v.12l-.77.75a2.44,2.44,0,0,1,.3.25,1.32,1.32,0,0,1-.08.48l-.15.47a7.6,7.6,0,0,1-.9.16l-.5.19a.65.65,0,0,0-.35,0,1.1,1.1,0,0,0-.55.34l-.45.42a1,1,0,0,1-.43.13,3.88,3.88,0,0,0-.55.11,3.27,3.27,0,0,1-.65.32,1.82,1.82,0,0,1-.84,0c-.23,0-.48-.13-.69-.16a7.8,7.8,0,0,1-1.27-.24,2.81,2.81,0,0,0-.35-.36l-.19,0a.86.86,0,0,0-.07-.25c-.1-.07-.24-.16-.39-.28a4.21,4.21,0,0,1-.07-1.08v-.12l-.32-.67a1.64,1.64,0,0,1-.2-.71,1.21,1.21,0,0,1,.2-.66,3.76,3.76,0,0,1-.41-1.28.48.48,0,0,1,.06-.24,1.54,1.54,0,0,1,.17-.19.41.41,0,0,0,0-.33V34.4l.11-.21a6.93,6.93,0,0,1-.11-.93l.32-.56c0-.11,0-.22,0-.33a3.59,3.59,0,0,0-.14-.82,2.43,2.43,0,0,1-.09-.84,1.09,1.09,0,0,1-.32-.11.3.3,0,0,0,0-.19s-.13-.18-.38-.51a1.58,1.58,0,0,0-.38.05l-.05.21-.26.11a2.17,2.17,0,0,1-.71.05,3.21,3.21,0,0,0-.71,0c-.72.16-1.1.22-1.13.22l-.42-.3a6.11,6.11,0,0,1,.06-1.08.62.62,0,0,1,.43-.53,5.81,5.81,0,0,0,.76-.22c.1-.05.26-.22.43-.31a1.06,1.06,0,0,1,.54-.08A1.34,1.34,0,0,0,217,28c.08-.05.19-.17.31-.27l.83-.08a.6.6,0,0,1,0-.19c.11-.12.23-.29.39-.51a1.14,1.14,0,0,1-.14-.58,3.2,3.2,0,0,0,.32-.43,1.74,1.74,0,0,0-.14-.34,3.17,3.17,0,0,0,.07-.59l-.11-.06v-.73c.15-.15.23-.22.39-.36a5.66,5.66,0,0,1,.25-.68l.25,0A.66.66,0,0,1,219.66,23Zm3.13,12,.5,0a1.34,1.34,0,0,1,.07.83l-.27-.05-.3,0-.35,0c0-.17.08-.4.15-.67Zm-.13,1.46a1,1,0,0,0,0,.25c.07,0,.09,0,.08-.14S222.67,36.41,222.66,36.44Zm5.66.09a.1.1,0,0,1,.08,0,.1.1,0,0,1-.08,0s-.07,0-.07,0S228.27,36.53,228.32,36.53Zm.28-.18c.05,0,.07,0,.07,0a.07.07,0,0,1-.07.06s-.08,0-.08,0S228.55,36.35,228.6,36.35Z" transform="translate(-7.38 -7.84)"/><path class="a" d="M234.71,24.89s.5-.15,1.42-.38a3.06,3.06,0,0,1,.71-.18c.14,0,.42.08.7.12a2.3,2.3,0,0,1,.64-.45.7.7,0,0,1,.56.24c.18.19.28.3.3.31a.75.75,0,0,0,.37,0,2.06,2.06,0,0,1,.49,0s.11.14.19.22a.44.44,0,0,1,.21,0,.55.55,0,0,1,.21.33,1,1,0,0,0,.17.39.88.88,0,0,0,.46.18.84.84,0,0,1,.51.21,1.38,1.38,0,0,1,.23.56,2.63,2.63,0,0,0,.18.55,5.11,5.11,0,0,1,.47.51,1.73,1.73,0,0,0-.08.27,1.34,1.34,0,0,1,.42.67v.48H243a.36.36,0,0,0-.08.15s.06.1.15.24a5.1,5.1,0,0,1,0,1.91,1.26,1.26,0,0,0-.23.24,1.32,1.32,0,0,0,.06.62c.05.25.08.39.08.42-.05.22-.11.48-.16.81a.36.36,0,0,1,.07.31.9.9,0,0,0-.43.41,1.64,1.64,0,0,0,.16.76,1.88,1.88,0,0,1,.17.76.92.92,0,0,1-.21.46l-.28.41a5.34,5.34,0,0,1-.36,1,6.23,6.23,0,0,0-.58.41.67.67,0,0,0-.08.25h-.13c0,.06,0,.16-.08.31a1.1,1.1,0,0,0-.27.15c0,.07,0,.22-.08.25s-.29.07-.5.15l-.13.26a2.08,2.08,0,0,0-.78,0c-.11,0-.35.19-.65.32l-.05.17a2.11,2.11,0,0,0-.5.1,2.78,2.78,0,0,0-.36.23h-.35a20.8,20.8,0,0,1-2.33.42,9.41,9.41,0,0,0-1.12-.4,1.08,1.08,0,0,1-.47,0c-.06,0-.18-.22-.28-.26s-.58-.11-1-.28c-.08-.12-.19-.28-.34-.47a3.12,3.12,0,0,1-.78-.32c0-.16-.1-.38-.19-.67a8.79,8.79,0,0,1-.78-1.64,4.5,4.5,0,0,0,.16-.82A6.3,6.3,0,0,1,230,35a2.74,2.74,0,0,0,.08-.81c0-.13-.09-.31-.13-.47l.05-.2a1.43,1.43,0,0,0-.05-.33,2.59,2.59,0,0,0,.06-.49.85.85,0,0,0-.18-.29.52.52,0,0,1-.17-.4,2.15,2.15,0,0,1,.35-1l.15-.1a1.12,1.12,0,0,0,0-.49v-.19a5.16,5.16,0,0,1,.28-1,2.26,2.26,0,0,1,.78-.91v-.07l.16,0a7.3,7.3,0,0,1,.43-1.09,1,1,0,0,0,.36-.21c.08-.1.2-.39.4-.68a1.39,1.39,0,0,0,.36-.14,3.54,3.54,0,0,1,.51-.56A4,4,0,0,1,234.71,24.89Zm2.45,2.64c0,.17-.11.47-.23.9l-.28.13-.72,0a4,4,0,0,0-.85.07,1.59,1.59,0,0,0-.4.14c-.17.15-.41.35-.71.58a1.48,1.48,0,0,0-.31.07v.15a7.36,7.36,0,0,1-.63.76,1.34,1.34,0,0,0-.36.15s0,.2,0,.36a1.38,1.38,0,0,1,0,.27.71.71,0,0,0-.24.22.84.84,0,0,0-.12.52v.45a2.7,2.7,0,0,0-.28.32,2,2,0,0,0,.35.22,3.19,3.19,0,0,0-.28,1.59c0,.08.11.15.3.2a1.25,1.25,0,0,1,.32.13,8.61,8.61,0,0,0,.5.92,1,1,0,0,0,.58,0,1.83,1.83,0,0,1,.6-.06,5.56,5.56,0,0,1,.5.38.36.36,0,0,0,0,.21,2.33,2.33,0,0,0,.42,0,13.71,13.71,0,0,0,1.4.39,2,2,0,0,1,.51-.13l.55.26a6,6,0,0,1,.43-.63c.2-.11.44-.26.71-.44v-.25c.08,0,.12-.09.13-.2s0-.15-.05-.32a.94.94,0,0,1,0-.41,2.26,2.26,0,0,0,.49-.49v-.77a.47.47,0,0,0,.23-.19.31.31,0,0,0-.07-.15.77.77,0,0,1-.28,0,.32.32,0,0,1-.26-.26,2.43,2.43,0,0,1-.08-.47s0,0,.05-.15a2.66,2.66,0,0,0,.5-.14,2.57,2.57,0,0,0-.06-1.14,1.9,1.9,0,0,0-.47-.32.68.68,0,0,1,.07-.53,2,2,0,0,0,.14-.35s0-.21-.11-.52a1.48,1.48,0,0,0-.16-.51,2.13,2.13,0,0,1-.35-.1,1.42,1.42,0,0,0-.22-.42,3.85,3.85,0,0,1-.76-.08.52.52,0,0,0-.07-.23C237.54,27.69,237.34,27.63,237.16,27.53Z" transform="translate(-7.38 -7.84)"/><path class="a" d="M256.35,25.52a2.43,2.43,0,0,1,.71.6l.5.59a4.5,4.5,0,0,1,1.21,1.09c.16.21.35.63.63,1.09a5.76,5.76,0,0,1,.36.48A5.58,5.58,0,0,0,260,30a1.33,1.33,0,0,1,.22.27,1.42,1.42,0,0,0,.07.49c.08.22.27.57.43,1a.25.25,0,0,1-.11.28.28.28,0,0,0-.1.29c0,.16.17.41.21.61a.85.85,0,0,1-.22.83.7.7,0,0,0-.29,0,.28.28,0,0,1,0,.18.69.69,0,0,1-.55-.14,3.18,3.18,0,0,0-.74-.4,3.12,3.12,0,0,0-.37,0c-.46-.27-.69-.4-1.15-.63a2.9,2.9,0,0,0-.44-1,1.07,1.07,0,0,1-.22-.19,1.27,1.27,0,0,0-.07-.33l-.22,0v.15A1.09,1.09,0,0,1,256,31a2.46,2.46,0,0,1-.44-.38c-.08-.13-.05-.29,0-.23l.15-.22c.2.11.27.17.22.18a5.55,5.55,0,0,0,.42.41c.13.09.19.09.2,0a1.25,1.25,0,0,0-.17-.4,3.51,3.51,0,0,0-.22-.35v-.08L256,30a4.38,4.38,0,0,1-1.45-.82l-.37-.39s-.1,0-.22,0a5,5,0,0,0-.23.49l-.15,0a1.29,1.29,0,0,1-.08.52h-.27c0,.07-.05.14-.08.22a1,1,0,0,0-.3-.09s0,.28-.08.31a1.8,1.8,0,0,0-.48.38,2.29,2.29,0,0,0-.08.81,4.6,4.6,0,0,1,0,1,2.73,2.73,0,0,1-.08.27,1.3,1.3,0,0,0-.08.34,1.53,1.53,0,0,0,.1.29c.06.17.09.34,0,.41s-.14.16-.23.29c.17.29.3.45.4.47s.22-.09.42-.3l.3.14c0,.49.05.7.07.65-.1.16-.21.33-.31.52q.19.32.42.63c0,.09,0,.23.07.42a1.9,1.9,0,0,1,1-.07,1.57,1.57,0,0,1,.52.22,1,1,0,0,1,.29.41,4.76,4.76,0,0,1,.22.5c.26.3.52.61.76.92a1.31,1.31,0,0,1,.39,1.14,1.2,1.2,0,0,0-.28.25,1.14,1.14,0,0,1-.23.31l-.22,0a3.87,3.87,0,0,1-.75.2,4.14,4.14,0,0,0-.8-.11v.16l-.59.16a1.22,1.22,0,0,1-.59,0,4.68,4.68,0,0,1-.52-.31,3.51,3.51,0,0,0-1.55-.23l-.15.16s-.15-.06-.6-.13a2.11,2.11,0,0,1-.73,0c-.38,0-1-.13-1.77-.19l-.29.07a1.11,1.11,0,0,1-.32.07.73.73,0,0,1-.33-.23,1.74,1.74,0,0,0-.23-.22l-.75-.2s0-.1-.07-.18a1.28,1.28,0,0,1-.68,0,4.85,4.85,0,0,1-.42-.5l-.22-.09a2.65,2.65,0,0,0-.07-.52,10,10,0,0,1,.77-1l.5-.23a2.75,2.75,0,0,1,.15-.25.72.72,0,0,1,.59.09,1,1,0,0,0,.61.12v-.09l.51-.41a7.76,7.76,0,0,0,1.33-.08l.07-.17a.53.53,0,0,0,.31-.15.87.87,0,0,0,.13-.5,4,4,0,0,0-.07-.61,3.37,3.37,0,0,1,0-.75s0-.18.11-.48a2,2,0,0,0,.06-.6s0-.1-.08-.26a.88.88,0,0,1-.06-.44h.07a3.58,3.58,0,0,1,.47-.95.6.6,0,0,1-.07-.27.17.17,0,0,1,.07-.16c0-.16,0-.24,0-.26a6.82,6.82,0,0,1-.36-.88,1.12,1.12,0,0,0,0-.26l-.22-.2a.37.37,0,0,1,.1-.31c.09-.1.13-.15.13-.17a1.63,1.63,0,0,1,0-.58c0-.13.13-.36.23-.65l.15-.06c0-.33-.05-.45-.07-.36v-.17a1.79,1.79,0,0,1-.38-.23,2.19,2.19,0,0,1,.09-.48c0-.15-.11-.28-.3-.38a1,1,0,0,0-.35-.14,1.83,1.83,0,0,0-.52.06l-.45.11a2.32,2.32,0,0,1-1.18-.24l-.07-.17a2.18,2.18,0,0,1-1.11,0c-.15,0-.29-.3-.36-.68a1.79,1.79,0,0,1-.07-.51,5.28,5.28,0,0,1,.47-1.51c1,0,1.67.07,1.76,0s.23-.22.38-.33a.46.46,0,0,1,.4.12,1.26,1.26,0,0,0,.2.2,2.58,2.58,0,0,0,.8,0,1.8,1.8,0,0,1,.74.09c.23.11.57.3,1,.54v.17a1.14,1.14,0,0,1,.44.2,3.94,3.94,0,0,0,.37.45,6.28,6.28,0,0,1,1,.33L253,25a1.42,1.42,0,0,0,.42.22,6.58,6.58,0,0,1,.82-.2.64.64,0,0,0,.22.11,2.29,2.29,0,0,1,.42-.07l.81.46.08-.11A3.26,3.26,0,0,1,256.35,25.52Zm-3.54,8.16a.17.17,0,0,1,.07.16.2.2,0,0,0-.07.09C252.76,33.81,252.76,33.73,252.81,33.68Z" transform="translate(-7.38 -7.84)"/><path class="b" d="M7.55,8.38c94.21,31.22,68.31,6.43,126.28,16.93,38.81,7,24.57,9.1,55.31,13.28,23.23,3.17,50.85-9.13,90.59,3.55" transform="translate(-7.38 -7.84)"/></svg>